<svg xmlns="http://www.w3.org/2000/svg" viewBox="0 0 245 359"><g id="Layer_2" data-name="Layer 2"><g id="Layer_2-2" data-name="Layer 2"><rect x="6.5" y="5.5" width="232" height="348" rx="14.77" fill="#29abe2"/><rect x="98.5" y="27.5" width="49" height="49" rx="7.97" fill="#e6e6e6"/><rect x="23.5" y="27.5" width="49" height="49" rx="7.97" fill="#e6e6e6"/><rect x="172.5" y="27.5" width="49" height="49" rx="7.97" fill="#e6e6e6"/><path d="M123.24,39.39A12.83,12.83,0,1,0,136,52.22,12.81,12.81,0,0,0,123.24,39.39Z" fill="#ed7899"/><path d="M110.74,52.16a13.56,13.56,0,0,1,2.45-7.73L119.13,55s6.4,1.87,6.4,1.86l-4.48,7.75A12.65,12.65,0,0,1,110.74,52.16Z" fill="#72caaf"/><path d="M122.64,62.29a10.23,10.23,0,0,1-5.09-1.75,1.39,1.39,0,0,0-1.3-.12h0a1.38,1.38,0,0,0-.73,1.79,1.35,1.35,0,0,0,.51.62,13.15,13.15,0,0,0,5.39,2.09C123.44,65.24,124,62.39,122.64,62.29Z" fill="#5dbc9d"/><path d="M129.59,63.08a13.61,13.61,0,0,1-7.93,1.64l5.81-10.35-1.6-6.5,9.5.11A12.69,12.69,0,0,1,129.59,63.08Z" fill="#f9e3ae"/><path d="M132.14,45.6h0a1.38,1.38,0,0,0,.74-1.8,1.65,1.65,0,0,0-.22-.36,12.79,12.79,0,0,0-16.92-2,1.38,1.38,0,0,0-.31,1.92,1.32,1.32,0,0,0,.6.47h0a1.37,1.37,0,0,0,1.27-.14,10,10,0,0,1,13.26,1.52A1.36,1.36,0,0,0,132.14,45.6Z" fill="#f283a5"/><path d="M133.11,54a11.24,11.24,0,0,1-5.71,7.72,1.51,1.51,0,0,1-.37.15,13,13,0,0,1-4.39.46c-.42,1.15-.62,1.21-1.25,2.63a16.46,16.46,0,0,0,6.77-.42,1.46,1.46,0,0,0,.39-.16c4.32-2.63,6.61-6.23,7.26-9.88a1.38,1.38,0,0,0-1.09-1.61,1.34,1.34,0,0,0-.79.09h0A1.37,1.37,0,0,0,133.11,54Z" fill="#f6d397"/><path d="M123.24,47.64a4.58,4.58,0,1,0,4.57,4.58A4.58,4.58,0,0,0,123.24,47.64Z" fill="#85cbf8"/><path d="M130.24,45.31a.46.46,0,0,0,.65-.65c-.27-.27-.56-.52-.85-.76a.47.47,0,0,0-.65.06.46.46,0,0,0,.07.65h0A10.27,10.27,0,0,1,130.24,45.31ZM121,42.79a9.56,9.56,0,0,1,5.43.18,10.83,10.83,0,0,1,1.37.54.56.56,0,0,0,.21.06.46.46,0,0,0,.45-.47.45.45,0,0,0-.24-.4,11,11,0,0,0-1.46-.61,10.46,10.46,0,0,0-6-.19.46.46,0,1,0,.18.9l0,0Zm-5,13.32a.46.46,0,0,0-.61-.21l-.82.42a.46.46,0,0,0-.21.61.47.47,0,0,0,.62.21l.82-.42A.46.46,0,0,0,116,56.11Zm.59,1.79-.67.61a.45.45,0,0,0-.07.64.46.46,0,0,0,.64.08l0,0,.68-.61a.46.46,0,0,0,0-.64.45.45,0,0,0-.61,0Zm-2-5.66h0a.46.46,0,1,0,0-.91l-.92-.06a.46.46,0,0,0-.48.43h0a.45.45,0,0,0,.42.49h0Zm4.27,7.15a.45.45,0,0,0-.63.13h0l-.52.76a.47.47,0,0,0,.14.64.46.46,0,0,0,.62-.13l.53-.79A.46.46,0,0,0,118.91,59.39ZM115.29,54a.47.47,0,0,0-.54-.36h0l-.92.19a.46.46,0,0,0,.09.91H114l.92-.18a.46.46,0,0,0,.36-.54Z" fill="#8d6c9f"/><path d="M123.24,38.93A13.29,13.29,0,1,0,136.5,52.22,13.27,13.27,0,0,0,123.24,38.93Zm0,.92a12.33,12.33,0,0,1,11.27,7.33H123.24a5,5,0,0,0-5,4.58l-4.35-7.57A12.32,12.32,0,0,1,123.24,39.85Zm4.12,12.37a4.12,4.12,0,1,1-4.12-4.12A4.12,4.12,0,0,1,127.36,52.22Zm-16.46,0A12.3,12.3,0,0,1,113.26,45l5.63,9.78h0a5,5,0,0,0,6.47,2.06h0L121,64.37A12.34,12.34,0,0,1,110.9,52.22Zm12.34,12.36c-.42,0-.85,0-1.28-.06l5.64-9.78h0a5,5,0,0,0-1.47-6.64h8.75a12.38,12.38,0,0,1-7.52,15.78A12.6,12.6,0,0,1,123.24,64.58Z" fill="#8d6c9f"/><rect x="6.5" y="314.5" width="232" height="38" rx="3.2" fill="#006837"/><rect x="4.5" y="4.5" width="236" height="350" rx="13.65" fill="none" stroke="#000" stroke-miterlimit="10" stroke-width="9"/><path d="M201,48.06a3.38,3.38,0,0,1-.77,2.14h.07v0l5.72-6.5a9.54,9.54,0,0,0-5.45-4.66l-5.71,6.48a3.68,3.68,0,0,1,2.52-1A3.55,3.55,0,0,1,201,48.06Z" fill="#ace3ff"/><path d="M199.8,50.67v0a3.67,3.67,0,0,1-2.42.91,3.55,3.55,0,0,1-3.61-3.49,3.35,3.35,0,0,1,.66-2l-5.5,6.24c.82,1.41,2.67,3.54,4.36,5.9l6.63-7.53Z" fill="#ffeb9b"/><path d="M193.29,58.2c.36.49.71,1,1,1.51,1.56,2.41,1.82,5.33,3,5.33s1.78-3.13,3.28-5.51c1.87-3,4.13-5.48,5.05-7a8.94,8.94,0,0,0,.31-8.77Z" fill="#5dbc9d"/><path d="M194.86,45.57l5.71-6.48a9.88,9.88,0,0,0-3.19-.53A9.75,9.75,0,0,0,190,41.84l4.71,3.85Z" fill="#7bbeeb"/><path d="M194.75,45.69,190,41.84a9,9,0,0,0-1.23,10.26l.12.2,5.5-6.24A2.24,2.24,0,0,1,194.75,45.69Z" fill="#ed7899"/><path d="M197.38,65.5c-1,0-1.5-1.15-2.07-2.61A16.12,16.12,0,0,0,193.92,60c-1-1.51-2.12-3-3.13-4.28a28.74,28.74,0,0,1-2.41-3.37,9.51,9.51,0,0,1-1.11-4.46,10.12,10.12,0,0,1,20.23,0,9.44,9.44,0,0,1-1.37,4.9c-.42.7-1.09,1.56-1.86,2.57-1,1.31-2.16,2.79-3.2,4.45a23.17,23.17,0,0,0-1.41,2.82C198.92,64.28,198.39,65.5,197.38,65.5Zm0-26.48a9,9,0,0,0-9.15,8.83,8.45,8.45,0,0,0,1,4,27.9,27.9,0,0,0,2.32,3.24c1,1.31,2.18,2.8,3.18,4.35a16.22,16.22,0,0,1,1.47,3.09c.39,1,.79,2,1.17,2s1-1.35,1.4-2.34a21.21,21.21,0,0,1,1.47-2.94c1.06-1.7,2.27-3.27,3.24-4.53a29.72,29.72,0,0,0,1.81-2.48,8.56,8.56,0,0,0,1.24-4.43A9,9,0,0,0,197.38,39Z" fill="#8d6c9f"/><path d="M193.46,58.4a.51.51,0,0,1-.31-.11.46.46,0,0,1-.06-.66l12.44-14.12a.5.5,0,0,1,.68-.06.46.46,0,0,1,.06.66L193.83,58.23A.5.5,0,0,1,193.46,58.4Z" fill="#8d6c9f"/><path d="M189,52.73a.51.51,0,0,1-.31-.11.46.46,0,0,1-.06-.66l11.55-13.1a.5.5,0,0,1,.68-.06.45.45,0,0,1,.05.66l-11.54,13.1A.5.5,0,0,1,189,52.73Z" fill="#8d6c9f"/><path d="M194.57,46.24a.56.56,0,0,1-.32-.11l-4.59-3.76a.45.45,0,0,1,0-.66.5.5,0,0,1,.68-.05l4.59,3.76a.45.45,0,0,1,.05.66A.5.5,0,0,1,194.57,46.24Z" fill="#8d6c9f"/><ellipse cx="197.39" cy="48.08" rx="1.2" ry="1.16" fill="#8d6c9f"/><path d="M197.38,52a4,4,0,1,1,4.1-4A4,4,0,0,1,197.38,52Zm0-7a3,3,0,1,0,3.13,3A3.09,3.09,0,0,0,197.38,45.06Z" fill="#8d6c9f"/><path d="M56.44,66.5H38.56a2.1,2.1,0,0,1-2.06-2.14V38.64a2.1,2.1,0,0,1,2.06-2.14H51.62l6.88,7.14V64.36A2.1,2.1,0,0,1,56.44,66.5Z" fill="#2196f3"/><path d="M58.5,43.64H51.62V36.5Z" fill="#bbdefb"/><path d="M51.62,43.64l6.88,7.15V43.64Z" fill="#1565c0"/><path d="M41.31,50.79H53.69v1.42H41.31Zm0,2.85H53.69v1.43H41.31Zm0,2.86H53.69v1.43H41.31Zm0,2.86h6.88v1.43H41.31Z" fill="#e3f2fd"/></g><g id="Layer_4" data-name="Layer 4"><rect x="108.5" y="321.5" width="24" height="24" rx="6.35" fill="#b3b3b3" stroke="#f2f2f2" stroke-miterlimit="10" stroke-width="2"/><polyline points="204.5 323.5 189.5 332.94 203.62 343.5" fill="none" stroke="#ff0" stroke-miterlimit="10" stroke-width="4"/><rect x="32.5" y="320.5" width="4.62" height="26" rx="2.31" fill="#b3b3b3" stroke="#f2f2f2" stroke-miterlimit="10" stroke-width="2"/><rect x="41.19" y="320.5" width="4.62" height="26" rx="2.31" fill="#b3b3b3" stroke="#f2f2f2" stroke-miterlimit="10" stroke-width="2"/><rect x="49.88" y="320.5" width="4.62" height="26" rx="2.31" fill="#b3b3b3" stroke="#f2f2f2" stroke-miterlimit="10" stroke-width="2"/></g></g></svg>