<svg id="Layer_1" data-name="Layer 1" xmlns="http://www.w3.org/2000/svg" viewBox="0 0 403 403"><rect x="134.83" y="1" width="157.66" height="85.91" rx="12.52" fill="#6ae7ff" stroke="#000" stroke-miterlimit="10" stroke-width="2"/><rect x="171.28" y="17.98" width="84.77" height="62.18" fill="#fcffd4" stroke="#000" stroke-miterlimit="10"/><rect x="171.28" y="17.98" width="84.77" height="7.18" fill="#e2f0ff" stroke="#000" stroke-miterlimit="10"/><path d="M567.7,425.29v53.25c0,34.57,23.64,62.6,52.79,62.6h0c29.15,0,52.78-28,52.78-62.6h0V425.29s-18,6.82-34.47,6.82c-37.87,0-58.24-33.38-58.24-33.38A39.61,39.61,0,0,0,567.7,425.29Z" transform="translate(-415.15 -192.47)" fill="#fff3d4" stroke="#000" stroke-miterlimit="10" stroke-width="4"/><ellipse cx="229.25" cy="275.78" rx="15.95" ry="18.91" fill="#d4dfff" stroke="#000" stroke-miterlimit="10" stroke-width="4"/><ellipse cx="181.01" cy="275.78" rx="15.95" ry="18.91" fill="#d4dfff" stroke="#000" stroke-miterlimit="10" stroke-width="4"/><line x1="196.96" y1="275.77" x2="213.31" y2="275.77" fill="none" stroke="#000" stroke-miterlimit="10" stroke-width="4"/><line x1="197.67" y1="311.79" x2="211.77" y2="311.79" fill="none" stroke="#000" stroke-miterlimit="10" stroke-width="2"/><path d="M567.7,439.62h-.63c-9.41,0-17,9.55-17,21.33s7.62,21.34,17,21.34h.63Z" transform="translate(-415.15 -192.47)" fill="#fff3d4" stroke="#000" stroke-miterlimit="10" stroke-width="4"/><path d="M567.7,468.41s-2.34-7.66-7.17-8.76" transform="translate(-415.15 -192.47)" fill="none" stroke="#000" stroke-miterlimit="10" stroke-width="4"/><path d="M673.27,439.62h.64c9.4,0,17,9.55,17,21.33s-7.63,21.34-17,21.34h-.64Z" transform="translate(-415.15 -192.47)" fill="#fff3d4" stroke="#000" stroke-miterlimit="10" stroke-width="4"/><path d="M673.27,468.41s2.35-7.66,7.18-8.76" transform="translate(-415.15 -192.47)" fill="none" stroke="#000" stroke-miterlimit="10" stroke-width="4"/><path d="M660.49,519.37c-10,13.83-24.63,21.78-40,21.77h0c-15.58,0-30.37-8.15-40.39-22.31-38,23.09-49.69,74.64-49.69,74.64H709.32S697.76,542.71,660.49,519.37Z" transform="translate(-415.15 -192.47)" fill="#8a0003" stroke="#000" stroke-miterlimit="10" stroke-width="4"/><path d="M556.88,442.23l2,0a14.32,14.32,0,0,1,8.24-2.67h.63V425.29a39.54,39.54,0,0,1,12.85-26.54s20.37,33.38,58.25,33.38c16.41,0,34.47-6.82,34.47-6.82v14.33h.63a15,15,0,0,1,10.55,4.59s7.38-17.29-1.83-47c-12.81-41.36-49.71-44.59-61.92-45.1-30.26-1.26-42,28-42,28s-17.41-5-24.28,24.22C548.31,430.41,556.88,442.23,556.88,442.23Z" transform="translate(-415.15 -192.47)" stroke="#000" stroke-miterlimit="10" stroke-width="4"/><path d="M645.2,536.92a24.67,24.67,0,0,0-.19-2.86,46.07,46.07,0,0,1-24.39,7.08h0a46.29,46.29,0,0,1-25.53-7.81,22.58,22.58,0,0,0-.28,3.59c0,13.4,11.28,24.27,25.19,24.27S645.2,550.32,645.2,536.92Z" transform="translate(-415.15 -192.47)" fill="#fff3d4" stroke="#000" stroke-miterlimit="10" stroke-width="4"/><path d="M487.92,435.5,455,443.71c-11,2.75-21.86-5.63-24.18-18.71l-13.23-74.63c-2.32-13.08,4.74-25.92,15.78-28.67l32.92-8.22c11-2.75,21.86,5.63,24.18,18.72l13.23,74.62C506,419.91,499,432.75,487.92,435.5Z" transform="translate(-415.15 -192.47)" fill="#6abeff" stroke="#000" stroke-miterlimit="10" stroke-width="4"/><line x1="14.28" y1="149.76" x2="17.3" y2="149.12" fill="none" stroke="#000" stroke-miterlimit="10" stroke-width="2"/><line x1="55.67" y1="168.87" x2="61.84" y2="167.54" fill="none" stroke="#000" stroke-miterlimit="10" stroke-width="2"/><line x1="31.81" y1="145.87" x2="56.72" y2="140.02" fill="none" stroke="#000" stroke-miterlimit="10" stroke-width="2"/><line x1="19.57" y1="177.36" x2="44.49" y2="171.52" fill="none" stroke="#000" stroke-miterlimit="10" stroke-width="2"/><line x1="17.02" y1="164.05" x2="60.83" y2="153.34" fill="none" stroke="#000" stroke-miterlimit="10" stroke-width="2"/><line x1="21.75" y1="187.61" x2="65.56" y2="176.9" fill="none" stroke="#000" stroke-miterlimit="10" stroke-width="2"/><line x1="23.75" y1="199.11" x2="67.56" y2="188.4" fill="none" stroke="#000" stroke-miterlimit="10" stroke-width="2"/><ellipse cx="54.18" cy="235.12" rx="5.56" ry="6.59" fill="#fff" stroke="#000" stroke-miterlimit="10" stroke-width="2"/><ellipse cx="358.08" cy="172.77" rx="40.51" ry="48.04" fill="#fff4f6" stroke="#000" stroke-miterlimit="10" stroke-width="2"/><ellipse cx="334.33" cy="168.84" rx="5.06" ry="6" fill="#fff" stroke="#000" stroke-miterlimit="10" stroke-width="2"/><ellipse cx="349.97" cy="170.35" rx="5.06" ry="6" fill="#fff" stroke="#000" stroke-miterlimit="10" stroke-width="2"/><ellipse cx="365.85" cy="171.88" rx="5.06" ry="6" fill="#fff" stroke="#000" stroke-miterlimit="10" stroke-width="2"/><ellipse cx="382.05" cy="173.44" rx="5.06" ry="6" fill="#fff" stroke="#000" stroke-miterlimit="10" stroke-width="2"/><ellipse cx="174.98" cy="21.56" rx="1.62" ry="1.93" fill="#ff3f45" stroke="#000" stroke-miterlimit="10"/><ellipse cx="179.61" cy="21.56" rx="1.62" ry="1.93" fill="#fff974" stroke="#000" stroke-miterlimit="10"/><ellipse cx="183.99" cy="21.56" rx="1.62" ry="1.93" fill="#26ff0a" stroke="#000" stroke-miterlimit="10"/><rect x="200.05" y="88.54" width="24.31" height="28.83" fill="#ebe3c3" stroke="#000" stroke-miterlimit="10" stroke-width="2"/><rect x="177.42" y="118.23" width="72.49" height="10.04" fill="#ebe3c3" stroke="#000" stroke-miterlimit="10" stroke-width="2"/><path d="M628,222.13c-10.29,0-18.66,9.92-18.66,22.12s8.37,22.12,18.66,22.12,18.65-9.93,18.65-22.12S638.26,222.13,628,222.13Zm-.63,21.13h-8.62A40.39,40.39,0,0,1,620,234h7.38Zm0,1.47v9.65H619.9a41.4,41.4,0,0,1-1.17-9.65Zm1.25,0h8.63a41.38,41.38,0,0,1-1.18,9.65H628.6Zm0-1.47V234H636a40.39,40.39,0,0,1,1.24,9.23Zm0-10.51v-8.93c2.92.43,5.47,3.87,7,8.93Zm-1.25,0h-7c1.56-5.06,4.11-8.5,7-8.93ZM618.86,234a43,43,0,0,0-1.16,9.23h-7.11a23.2,23.2,0,0,1,2.27-9.23Zm-1.17,10.7a43.63,43.63,0,0,0,1.15,9.65h-6a23.47,23.47,0,0,1-2.24-9.65Zm9.66,10.93v9.17c-3-.44-5.55-4-7.1-9.17Zm1.25,0h7.1c-1.55,5.2-4.14,8.73-7.1,9.17Zm8.51-1.28a43,43,0,0,0,1.15-9.65h7.11a23.47,23.47,0,0,1-2.23,9.65Zm1.15-11.12a42.94,42.94,0,0,0-1.17-9.23h6a23.2,23.2,0,0,1,2.27,9.23Zm4.17-10.51h-5.68a19.57,19.57,0,0,0-4.48-8.51A17.86,17.86,0,0,1,642.43,232.75Zm-18.75-8.51a19.57,19.57,0,0,0-4.48,8.51h-5.67A17.81,17.81,0,0,1,623.68,224.24Zm-10.2,31.42h5.7a19.6,19.6,0,0,0,4.52,8.6A17.86,17.86,0,0,1,613.48,255.66Zm18.77,8.6a19.71,19.71,0,0,0,4.53-8.6h5.7A17.88,17.88,0,0,1,632.25,264.26Z" transform="translate(-415.15 -192.47)" stroke="#000" stroke-miterlimit="10" stroke-width="0.75"/><path d="M760.08,280.8c-.37,5.47,4.67,15.47,4.67,15.47s-4.37,15.35-3.27,16.24C762.86,313.63,774,303,774,303s21.79,6.72,32.83.51c5.64-3.17,10-10.3,10.34-17.18.75-13.46-13.5-26.37-26.81-27.65C774.56,257.13,761,267,760.08,280.8Z" transform="translate(-415.15 -192.47)" fill="#fff" stroke="#000" stroke-miterlimit="10" stroke-width="2"/><path d="M778.29,280.22l.61.22,0,.23-1.36-.3,0-.23.65.05Zm.08-1.83c.11-.59.23-1.19.33-1.79l.47.1c-.13.58-.25,1.18-.36,1.79l0,.17c-.14.71-.26,1.32-.36,1.92l-.46-.11c.13-.58.24-1.18.36-1.79Zm-.16-1.66,0-.23,1.36.3,0,.23-.65,0-.09,0Zm.33,1.94.05-.26,2,.45,0,.27Zm1.79,2,.61.23,0,.23-1.36-.3,0-.24.65.06Zm.08-1.82c.11-.6.23-1.2.33-1.8l.47.11c-.13.58-.25,1.18-.37,1.78l-.05.29c-.12.6-.24,1.2-.34,1.8l-.46-.11c.12-.58.24-1.18.38-1.9Zm-.16-1.67,0-.23,1.36.3,0,.24-.65-.06-.09,0Z" transform="translate(-415.15 -192.47)"/><path d="M783.22,281.31l-.06.32-.68-.15,0-.23.65.05Zm.12-1.81c.12-.6.24-1.2.34-1.8l.47.11c-.13.58-.25,1.18-.37,1.79l0,.22c-.13.66-.25,1.26-.35,1.86l-.47-.1c.13-.58.25-1.19.37-1.79Zm1.88,1.51-.23,1-1.83-.41.05-.29,1.66.37-.27.24.35-1Zm-2-3.17,0-.24.68.16-.06.31h-.05Zm1.43,2.19-1.1-.24.05-.27,1.1.24Zm.64-2,.16.34-1.56-.35,0-.28,1.74.38-.17,1-.27-.06Zm-.76,1.74.19-.6.22.05-.27,1.37-.22-.05.06-.66Z" transform="translate(-415.15 -192.47)"/><path d="M787.29,282.22l-.06.31-.68-.15,0-.23.65.05Zm.46-3.61.47.1c-.13.6-.25,1.2-.36,1.79l-.08.41c-.1.49-.22,1.09-.32,1.68l-.46-.11c.13-.59.25-1.19.36-1.79l.06-.29C787.54,279.8,787.65,279.2,787.75,278.61Zm1.47,3.23-.26,1.08-1.73-.39.06-.29,1.56.35-.32.23.4-1Zm-2-3.1,0-.23,1.36.3,0,.23L788,279l-.09,0Z" transform="translate(-415.15 -192.47)"/><path d="M791.33,283.11l-.06.32-.68-.15,0-.23.65.05Zm.46-3.6.47.1c-.13.59-.25,1.19-.37,1.79l-.08.4c-.09.49-.21,1.1-.31,1.68l-.47-.1c.14-.59.25-1.19.37-1.79l.06-.29C791.58,280.69,791.69,280.09,791.79,279.51Zm1.47,3.23-.26,1.08-1.73-.39.05-.29,1.57.35-.33.23.41-1Zm-2-3.1.05-.23,1.36.3-.05.23-.65-.05-.1,0Z" transform="translate(-415.15 -192.47)"/><path d="M798,282.9c-.25,1.27-1.13,1.86-1.88,1.7s-1.35-1-1.09-2.36,1.13-1.85,1.88-1.69S798.25,281.59,798,282.9Zm-1.82,1.41c.68.15,1.14-.65,1.31-1.52s0-1.8-.63-2-1.15.65-1.32,1.52S795.48,284.16,796.17,284.31Z" transform="translate(-415.15 -192.47)"/><path d="M799.43,284.94a.33.33,0,0,1,.37-.3.37.37,0,0,1,.24.44.34.34,0,0,1-.38.29A.35.35,0,0,1,799.43,284.94Zm1.22-3.19c0,.22-.2.75-.43,1.55l-.22.79-.17,0,.09-.82c.1-.82.15-1.38.19-1.6s.18-.33.34-.29S800.7,281.5,800.65,281.75Z" transform="translate(-415.15 -192.47)"/></svg>