<svg xmlns="http://www.w3.org/2000/svg" viewBox="0 0 233 345.5"><g id="Layer_2" data-name="Layer 2"><g id="Layer_8" data-name="Layer 8"><rect x="1.5" y="0.5" width="230" height="345" rx="14.77" fill="#ebf2ed"/><rect x="0.5" y="0.5" width="232" height="35" rx="9.06" fill="#ebf2ed" stroke="gray" stroke-miterlimit="10"/><path d="M19.5,5.13h196A9.88,9.88,0,0,1,225.37,15v5a9.87,9.87,0,0,1-9.87,9.87H19.5A9.87,9.87,0,0,1,9.63,20V15A9.87,9.87,0,0,1,19.5,5.13Z" fill="#fff"/><path d="M215.5,5.25A9.76,9.76,0,0,1,225.25,15v5a9.76,9.76,0,0,1-9.75,9.75H19.5A9.76,9.76,0,0,1,9.75,20V15A9.76,9.76,0,0,1,19.5,5.25h196m0-.25H19.5a10,10,0,0,0-10,10v5a10,10,0,0,0,10,10h196a10,10,0,0,0,10-10V15a10,10,0,0,0-10-10Z" fill="#999"/><path d="M23.54,20.66c-3.22,0-5.84-2.31-5.84-5.14s2.62-5.14,5.84-5.14,5.83,2.3,5.83,5.14S26.76,20.66,23.54,20.66Z" fill="#fff"/><path d="M23.54,11.38c2.66,0,4.83,1.86,4.83,4.14s-2.17,4.14-4.83,4.14S18.7,17.8,18.7,15.52s2.17-4.14,4.84-4.14m0-2c-3.78,0-6.84,2.75-6.84,6.14s3.06,6.14,6.84,6.14,6.83-2.75,6.83-6.14-3.06-6.14-6.83-6.14Z"/><line x1="26.55" y1="19.2" x2="32.01" y2="26.08" fill="none" stroke="#000" stroke-miterlimit="10" stroke-width="2"/></g></g></svg>