<svg xmlns="http://www.w3.org/2000/svg" xmlns:xlink="http://www.w3.org/1999/xlink" viewBox="0 0 561 338.28"><defs><mask id="mask" x="17.58" y="11" width="22.42" height="31" maskUnits="userSpaceOnUse"><g id="mask-2"><path id="path-1" d="M31.59,11H19.68a2.11,2.11,0,0,0-2.1,2.11V39.89A2.11,2.11,0,0,0,19.68,42H37.9A2.11,2.11,0,0,0,40,39.89V19.45Z" fill="#fff" fill-rule="evenodd"/></g></mask><linearGradient id="linear-gradient" x1="-2495.18" y1="695.81" x2="-2495.18" y2="695.37" gradientTransform="matrix(16.45, 0, 0, -16.45, 41086.93, 11464.35)" gradientUnits="userSpaceOnUse"><stop offset="0" stop-color="#bf360c" stop-opacity="0.2"/><stop offset="1" stop-color="#bf360c" stop-opacity="0.02"/></linearGradient><radialGradient id="radial-gradient" cx="-2600.44" cy="710.78" r="1.61" gradientTransform="matrix(22.42, 0, 0, -22.55, 58322.29, 16036.78)" gradientUnits="userSpaceOnUse"><stop offset="0" stop-color="#fff" stop-opacity="0.1"/><stop offset="1" stop-color="#fff" stop-opacity="0"/></radialGradient></defs><g id="Layer_2" data-name="Layer 2"><g id="Layer_5" data-name="Layer 5"><rect x="1" y="1" width="559" height="336.28" rx="7.09" fill="#fff" stroke="#999" stroke-miterlimit="10" stroke-width="2"/><rect x="117.03" y="66.43" width="442.97" height="270.54" rx="7.09" fill="#ebf2ed"/><rect x="155.66" y="85.48" width="375.58" height="233.38" rx="7.09" fill="#fff" stroke="#999" stroke-miterlimit="10" stroke-width="2"/><rect x="117.24" y="56.95" width="17.54" height="280.01" rx="7.09" fill="#fff" stroke="#999" stroke-miterlimit="10" stroke-width="2"/><rect x="2.24" y="55.95" width="114.76" height="281.01" rx="7.09" fill="#fff" stroke="#999" stroke-miterlimit="10" stroke-width="2"/><rect x="329.01" y="-156.06" width="18.99" height="443" rx="7.09" transform="translate(403.94 -273.06) rotate(90)" fill="#fff" stroke="#999" stroke-miterlimit="10" stroke-width="2"/><g id="Page-1"><g id="Consumer-Apps-Slides-Large-VD-R8"><g id="Hero"><g id="Personal"><g id="Slides-icon"><g id="Group"><g id="Clipped"><g mask="url(#mask)"><path id="Path" d="M31.59,11H19.68a2.11,2.11,0,0,0-2.1,2.11V39.89A2.11,2.11,0,0,0,19.68,42H37.9A2.11,2.11,0,0,0,40,39.89V19.45l-4.9-3.52Z" fill="#f4b400"/></g></g><g id="Clipped-2" data-name="Clipped"><g mask="url(#mask)"><path id="Shape" d="M33.34,25.09h-9.1a1.07,1.07,0,0,0-1.06,1.06v9.16a1.06,1.06,0,0,0,1.06,1h9.1a1,1,0,0,0,1-1V26.15A1.06,1.06,0,0,0,33.34,25.09ZM33,33.19h-8.4V28.26H33Z" fill="#f1f1f1"/></g></g><g id="Clipped-3" data-name="Clipped"><g mask="url(#mask)"><polygon id="Path-2" data-name="Path" points="32.21 18.84 40 26.67 40 19.45 32.21 18.84" fill="url(#linear-gradient)"/></g></g><g id="Clipped-4" data-name="Clipped"><g mask="url(#mask)"><g id="Group-2" data-name="Group"><path id="Path-3-2" data-name="Path" d="M31.59,11v6.34a2.1,2.1,0,0,0,2.1,2.11H40Z" fill="#fada80"/></g></g></g><g id="Clipped-5" data-name="Clipped"><g mask="url(#mask)"><polygon id="Path-4" data-name="Path" points="31.59 11 31.59 11.18 39.83 19.45 40 19.45 31.59 11" fill="#fff" fill-opacity="0.1"/></g></g><g id="Clipped-6" data-name="Clipped"><g mask="url(#mask)"><path id="Path-5-2" data-name="Path" d="M19.68,11a2.11,2.11,0,0,0-2.1,2.11v.18a2.11,2.11,0,0,1,2.1-2.11H31.59V11Z" fill="#fff" fill-opacity="0.2"/></g></g><g id="Clipped-7" data-name="Clipped"><g mask="url(#mask)"><path id="Path-6" data-name="Path" d="M37.9,41.82H19.68a2.11,2.11,0,0,1-2.1-2.11v.18A2.11,2.11,0,0,0,19.68,42H37.9A2.11,2.11,0,0,0,40,39.89v-.18A2.11,2.11,0,0,1,37.9,41.82Z" fill="#bf360c" fill-opacity="0.2"/></g></g><g id="Clipped-8" data-name="Clipped"><g mask="url(#mask)"><path id="Path-7" data-name="Path" d="M33.69,19.45a2.1,2.1,0,0,1-2.1-2.11v.18a2.11,2.11,0,0,0,2.1,2.11H40v-.18Z" fill="#bf360c" fill-opacity="0.1"/></g></g></g><path id="Path-8-2" data-name="Path" d="M31.59,11H19.68a2.11,2.11,0,0,0-2.1,2.11V39.89A2.11,2.11,0,0,0,19.68,42H37.9A2.11,2.11,0,0,0,40,39.89V19.45Z" fill="url(#radial-gradient)"/></g></g></g></g></g><rect x="20.66" y="69.48" width="88.34" height="60.52" rx="7.09" fill="#fff" stroke="#999" stroke-miterlimit="10" stroke-width="2"/><rect x="20.66" y="138.48" width="88.34" height="60.52" rx="7.09" fill="#fff" stroke="#999" stroke-miterlimit="10" stroke-width="2"/><rect x="20.66" y="207.48" width="88.34" height="60.52" rx="7.09" fill="#fff" stroke="#999" stroke-miterlimit="10" stroke-width="2"/><line x1="133" y1="62" x2="133" y2="68" fill="none" stroke="#999" stroke-miterlimit="10" stroke-width="2"/><line x1="142" y1="62" x2="142" y2="68" fill="none" stroke="#999" stroke-miterlimit="10" stroke-width="2"/><line x1="151" y1="62" x2="151" y2="68" fill="none" stroke="#999" stroke-miterlimit="10" stroke-width="2"/><line x1="159" y1="60" x2="159" y2="70" fill="none" stroke="#999" stroke-miterlimit="10" stroke-width="2"/><line x1="167" y1="62" x2="167" y2="68" fill="none" stroke="#999" stroke-miterlimit="10" stroke-width="2"/><line x1="176" y1="62" x2="176" y2="68" fill="none" stroke="#999" stroke-miterlimit="10" stroke-width="2"/><line x1="185" y1="62" x2="185" y2="68" fill="none" stroke="#999" stroke-miterlimit="10" stroke-width="2"/><line x1="193" y1="60" x2="193" y2="70" fill="none" stroke="#999" stroke-miterlimit="10" stroke-width="2"/><line x1="201" y1="62" x2="201" y2="68" fill="none" stroke="#999" stroke-miterlimit="10" stroke-width="2"/><line x1="210" y1="62" x2="210" y2="68" fill="none" stroke="#999" stroke-miterlimit="10" stroke-width="2"/><line x1="219" y1="62" x2="219" y2="68" fill="none" stroke="#999" stroke-miterlimit="10" stroke-width="2"/><line x1="227" y1="60" x2="227" y2="70" fill="none" stroke="#999" stroke-miterlimit="10" stroke-width="2"/><line x1="234" y1="62" x2="234" y2="68" fill="none" stroke="#999" stroke-miterlimit="10" stroke-width="2"/><line x1="243" y1="62" x2="243" y2="68" fill="none" stroke="#999" stroke-miterlimit="10" stroke-width="2"/><line x1="252" y1="62" x2="252" y2="68" fill="none" stroke="#999" stroke-miterlimit="10" stroke-width="2"/><line x1="260" y1="60" x2="260" y2="70" fill="none" stroke="#999" stroke-miterlimit="10" stroke-width="2"/><line x1="268" y1="62" x2="268" y2="68" fill="none" stroke="#999" stroke-miterlimit="10" stroke-width="2"/><line x1="277" y1="62" x2="277" y2="68" fill="none" stroke="#999" stroke-miterlimit="10" stroke-width="2"/><line x1="286" y1="62" x2="286" y2="68" fill="none" stroke="#999" stroke-miterlimit="10" stroke-width="2"/><line x1="294" y1="60" x2="294" y2="70" fill="none" stroke="#999" stroke-miterlimit="10" stroke-width="2"/><line x1="302" y1="62" x2="302" y2="68" fill="none" stroke="#999" stroke-miterlimit="10" stroke-width="2"/><line x1="311" y1="62" x2="311" y2="68" fill="none" stroke="#999" stroke-miterlimit="10" stroke-width="2"/><line x1="320" y1="62" x2="320" y2="68" fill="none" stroke="#999" stroke-miterlimit="10" stroke-width="2"/><line x1="328" y1="60" x2="328" y2="70" fill="none" stroke="#999" stroke-miterlimit="10" stroke-width="2"/><line x1="335" y1="62" x2="335" y2="68" fill="none" stroke="#999" stroke-miterlimit="10" stroke-width="2"/><line x1="344" y1="62" x2="344" y2="68" fill="none" stroke="#999" stroke-miterlimit="10" stroke-width="2"/><line x1="353" y1="62" x2="353" y2="68" fill="none" stroke="#999" stroke-miterlimit="10" stroke-width="2"/><line x1="361" y1="60" x2="361" y2="70" fill="none" stroke="#999" stroke-miterlimit="10" stroke-width="2"/><line x1="367" y1="62" x2="367" y2="68" fill="none" stroke="#999" stroke-miterlimit="10" stroke-width="2"/><line x1="376" y1="62" x2="376" y2="68" fill="none" stroke="#999" stroke-miterlimit="10" stroke-width="2"/><line x1="385" y1="62" x2="385" y2="68" fill="none" stroke="#999" stroke-miterlimit="10" stroke-width="2"/><line x1="393" y1="60" x2="393" y2="70" fill="none" stroke="#999" stroke-miterlimit="10" stroke-width="2"/><line x1="399" y1="62" x2="399" y2="68" fill="none" stroke="#999" stroke-miterlimit="10" stroke-width="2"/><line x1="408" y1="62" x2="408" y2="68" fill="none" stroke="#999" stroke-miterlimit="10" stroke-width="2"/><line x1="417" y1="62" x2="417" y2="68" fill="none" stroke="#999" stroke-miterlimit="10" stroke-width="2"/><line x1="425" y1="60" x2="425" y2="70" fill="none" stroke="#999" stroke-miterlimit="10" stroke-width="2"/><line x1="432" y1="62" x2="432" y2="68" fill="none" stroke="#999" stroke-miterlimit="10" stroke-width="2"/><line x1="441" y1="62" x2="441" y2="68" fill="none" stroke="#999" stroke-miterlimit="10" stroke-width="2"/><line x1="450" y1="62" x2="450" y2="68" fill="none" stroke="#999" stroke-miterlimit="10" stroke-width="2"/><line x1="458" y1="60" x2="458" y2="70" fill="none" stroke="#999" stroke-miterlimit="10" stroke-width="2"/><line x1="464" y1="62" x2="464" y2="68" fill="none" stroke="#999" stroke-miterlimit="10" stroke-width="2"/><line x1="473" y1="62" x2="473" y2="68" fill="none" stroke="#999" stroke-miterlimit="10" stroke-width="2"/><line x1="482" y1="62" x2="482" y2="68" fill="none" stroke="#999" stroke-miterlimit="10" stroke-width="2"/><line x1="490" y1="60" x2="490" y2="70" fill="none" stroke="#999" stroke-miterlimit="10" stroke-width="2"/><line x1="497" y1="62" x2="497" y2="68" fill="none" stroke="#999" stroke-miterlimit="10" stroke-width="2"/><line x1="506" y1="62" x2="506" y2="68" fill="none" stroke="#999" stroke-miterlimit="10" stroke-width="2"/><line x1="515" y1="62" x2="515" y2="68" fill="none" stroke="#999" stroke-miterlimit="10" stroke-width="2"/><line x1="523" y1="60" x2="523" y2="70" fill="none" stroke="#999" stroke-miterlimit="10" stroke-width="2"/><line x1="529" y1="62" x2="529" y2="68" fill="none" stroke="#999" stroke-miterlimit="10" stroke-width="2"/><line x1="538" y1="62" x2="538" y2="68" fill="none" stroke="#999" stroke-miterlimit="10" stroke-width="2"/><line x1="547" y1="62" x2="547" y2="68" fill="none" stroke="#999" stroke-miterlimit="10" stroke-width="2"/><line x1="560" y1="61" x2="560" y2="71" fill="none" stroke="#999" stroke-miterlimit="10" stroke-width="2"/><line x1="129" y1="82" x2="123" y2="82" fill="none" stroke="#999" stroke-miterlimit="10" stroke-width="2"/><line x1="129" y1="91" x2="123" y2="91" fill="none" stroke="#999" stroke-miterlimit="10" stroke-width="2"/><line x1="129" y1="100" x2="123" y2="100" fill="none" stroke="#999" stroke-miterlimit="10" stroke-width="2"/><line x1="131" y1="108" x2="121" y2="108" fill="none" stroke="#999" stroke-miterlimit="10" stroke-width="2"/><line x1="129" y1="116" x2="123" y2="116" fill="none" stroke="#999" stroke-miterlimit="10" stroke-width="2"/><line x1="129" y1="125" x2="123" y2="125" fill="none" stroke="#999" stroke-miterlimit="10" stroke-width="2"/><line x1="129" y1="134" x2="123" y2="134" fill="none" stroke="#999" stroke-miterlimit="10" stroke-width="2"/><line x1="131" y1="142" x2="121" y2="142" fill="none" stroke="#999" stroke-miterlimit="10" stroke-width="2"/><line x1="129" y1="150" x2="123" y2="150" fill="none" stroke="#999" stroke-miterlimit="10" stroke-width="2"/><line x1="129" y1="159" x2="123" y2="159" fill="none" stroke="#999" stroke-miterlimit="10" stroke-width="2"/><line x1="129" y1="168" x2="123" y2="168" fill="none" stroke="#999" stroke-miterlimit="10" stroke-width="2"/><line x1="131" y1="176" x2="121" y2="176" fill="none" stroke="#999" stroke-miterlimit="10" stroke-width="2"/><line x1="129" y1="183" x2="123" y2="183" fill="none" stroke="#999" stroke-miterlimit="10" stroke-width="2"/><line x1="129" y1="192" x2="123" y2="192" fill="none" stroke="#999" stroke-miterlimit="10" stroke-width="2"/><line x1="129" y1="201" x2="123" y2="201" fill="none" stroke="#999" stroke-miterlimit="10" stroke-width="2"/><line x1="131" y1="209" x2="121" y2="209" fill="none" stroke="#999" stroke-miterlimit="10" stroke-width="2"/><line x1="129" y1="217" x2="123" y2="217" fill="none" stroke="#999" stroke-miterlimit="10" stroke-width="2"/><line x1="129" y1="226" x2="123" y2="226" fill="none" stroke="#999" stroke-miterlimit="10" stroke-width="2"/><line x1="129" y1="235" x2="123" y2="235" fill="none" stroke="#999" stroke-miterlimit="10" stroke-width="2"/><line x1="131" y1="243" x2="121" y2="243" fill="none" stroke="#999" stroke-miterlimit="10" stroke-width="2"/><line x1="129" y1="251" x2="123" y2="251" fill="none" stroke="#999" stroke-miterlimit="10" stroke-width="2"/><line x1="129" y1="260" x2="123" y2="260" fill="none" stroke="#999" stroke-miterlimit="10" stroke-width="2"/><line x1="129" y1="269" x2="123" y2="269" fill="none" stroke="#999" stroke-miterlimit="10" stroke-width="2"/><line x1="131" y1="277" x2="121" y2="277" fill="none" stroke="#999" stroke-miterlimit="10" stroke-width="2"/><line x1="129" y1="284" x2="123" y2="284" fill="none" stroke="#999" stroke-miterlimit="10" stroke-width="2"/><line x1="129" y1="293" x2="123" y2="293" fill="none" stroke="#999" stroke-miterlimit="10" stroke-width="2"/><line x1="129" y1="302" x2="123" y2="302" fill="none" stroke="#999" stroke-miterlimit="10" stroke-width="2"/><line x1="131" y1="310" x2="121" y2="310" fill="none" stroke="#999" stroke-miterlimit="10" stroke-width="2"/><line x1="129" y1="316" x2="123" y2="316" fill="none" stroke="#999" stroke-miterlimit="10" stroke-width="2"/><line x1="129" y1="322" x2="123" y2="322" fill="none" stroke="#999" stroke-miterlimit="10" stroke-width="2"/><line x1="129" y1="328" x2="123" y2="328" fill="none" stroke="#999" stroke-miterlimit="10" stroke-width="2"/></g></g></svg>