<svg id="Layer_8" data-name="Layer 8" xmlns="http://www.w3.org/2000/svg" viewBox="0 0 649.91 368.43"><g id="Layer_9" data-name="Layer 9"><rect x="4.5" y="4.5" width="640.91" height="359.09" rx="66.37" fill="#a00" stroke="#000" stroke-miterlimit="10" stroke-width="9"/><path d="M609.76,253.07c-76,0-137.87,69.23-137.87,154.32S533.74,561.7,609.76,561.7s137.87-69.23,137.87-154.31S685.78,253.07,609.76,253.07Zm-4.6,147.4H541.45a267.78,267.78,0,0,1,9.12-64.38h54.59Zm0,10.28v67.3H550.09a271.88,271.88,0,0,1-8.7-67.3Zm9.2,0h63.77a271.88,271.88,0,0,1-8.7,67.3H614.36Zm0-10.28V336.09H669a267.78,267.78,0,0,1,9.12,64.38Zm0-73.31V264.9c21.57,3,40.41,27,51.92,62.26Zm-9.2,0H553.24c11.51-35.31,30.35-59.26,51.92-62.26Zm-62.78,8.93a282.34,282.34,0,0,0-8.6,64.38H481.24A155.72,155.72,0,0,1,498,336.09Zm-8.64,74.66a283.88,283.88,0,0,0,8.51,67.3H497.7a156.22,156.22,0,0,1-16.54-67.3ZM605.16,487v64c-21.93-3.06-41-27.75-52.47-64Zm9.2,0h52.48c-11.45,36.27-30.55,61-52.48,64Zm62.91-8.92a283.88,283.88,0,0,0,8.51-67.3h52.58a156.36,156.36,0,0,1-16.54,67.3Zm8.47-77.58a282.34,282.34,0,0,0-8.6-64.38h44.35a155.72,155.72,0,0,1,16.79,64.38Zm30.83-73.31H674.64c-7.86-25.84-19.41-46.6-33.15-59.36C672.55,276.65,699.14,298.18,716.57,327.16ZM578,267.8c-13.75,12.76-25.3,33.52-33.15,59.37H503C520.38,298.19,547,276.65,578,267.8ZM502.59,487h42.12c7.88,26.19,19.55,47.2,33.46,60C546.82,538.12,520,516.31,502.59,487Zm138.77,60c13.9-12.84,25.57-33.85,33.45-60h42.13C699.49,516.32,672.7,538.12,641.36,547Z" transform="translate(-284.8 -193.27)"/><ellipse cx="324.96" cy="254.1" rx="61.95" ry="84.83" fill="#fff"/><path d="M707.45,514.69c-15.37-15.26-46.1-16.7-46.1-16.7,9.88-13.43,34-10.57,30.74-74.63s-82.33-80.72-82.33-80.72-79,16.65-82.33,80.72,20.86,61.21,30.75,74.63c0,0-30.74,1.44-46.11,16.7s-14.27,41.42-14.27,41.42H721.72S722.81,530,707.45,514.69Zm-97.69,13c-38.41-25.24-54.7-80.69-57-110.93s57-32.86,57-32.86,59.36,2.62,57,32.86S648.17,502.49,609.76,527.72Z" transform="translate(-284.8 -193.27)"/><path d="M649.27,461.87c-2.47,4.91-11.52,13.08-18.11,7.36s-21.41-7.36-21.41-7.36-14.81,1.64-21.4,7.36-15.64-2.45-18.12-7.36c0,0-1.66,21.2,19.76,21.29,10.69,0,13.18-9,19.76-10.65,6.57,1.65,9.06,10.69,19.75,10.65C651,483.07,649.27,461.87,649.27,461.87Z" transform="translate(-284.8 -193.27)"/><path d="M609.76,496.39s-8.24,0-7.41,6.53,7.41,18.81,7.41,18.81,6.59-12.27,7.41-18.81S609.76,496.39,609.76,496.39Z" transform="translate(-284.8 -193.27)"/><path d="M599.76,426.08s-5.76-11-14.82-8.38-20.57,8.38-20.57,8.38a183.85,183.85,0,0,0,20.69,3C597.13,430.16,599.76,426.08,599.76,426.08Z" transform="translate(-284.8 -193.27)"/><path d="M619.76,426.08s5.76-11,14.82-8.38,20.57,8.38,20.57,8.38a183.85,183.85,0,0,1-20.69,3C622.39,430.16,619.76,426.08,619.76,426.08Z" transform="translate(-284.8 -193.27)"/><path d="M598,412.81s-14.54-18.33-22-14.32-9.87,7.63-9.87,7.63S576.31,404.32,598,412.81Z" transform="translate(-284.8 -193.27)"/><path d="M621.55,412.81s14.54-18.33,22-14.32,9.87,7.63,9.87,7.63S643.21,404.32,621.55,412.81Z" transform="translate(-284.8 -193.27)"/><path d="M690.82,321c.74,12.62,16.82,33.95,16.82,33.95s-6.42,36.42-3.32,38.12c3.91,2.14,29.06-25.59,29.06-25.59s58.12,8.77,84.55-8.75c13.5-9,22.35-26.55,21.18-42.39-2.27-31-42.93-56.18-77.54-55.1C720.62,262.5,688.94,289.26,690.82,321Z" transform="translate(-284.8 -193.27)" fill="#fff" stroke="#000" stroke-miterlimit="10" stroke-width="2"/><path d="M511.62,371.12c-.74,12.62-16.81,33.95-16.81,33.95s6.42,36.42,3.31,38.12c-3.9,2.14-29.05-25.59-29.05-25.59s-58.12,8.77-84.55-8.76c-13.5-8.95-22.36-26.54-21.19-42.38,2.28-31,42.93-56.18,77.54-55.1C481.82,312.65,513.5,339.41,511.62,371.12Z" transform="translate(-284.8 -193.27)" fill="#fff" stroke="#000" stroke-miterlimit="10" stroke-width="2"/><path d="M744.52,327.23l.41,8.17a1,1,0,0,0,1,1H746a1,1,0,0,0,.95-1l-.42-8.17a1.15,1.15,0,0,1,.67-1.1l4.13-1.91a23.81,23.81,0,0,0,1.87,5.39L750,331a2.72,2.72,0,0,0-1.57,2.6l.33,6.5a1,1,0,0,0,1,.95h.05a1,1,0,0,0,.95-1.05l-.33-6.5a.72.72,0,0,1,.41-.68l3.24-1.5a17,17,0,0,0,6.43,6.58L764,322.54a1,1,0,0,1,1-.78,1,1,0,0,1,1,.78l3.46,15.33a17.13,17.13,0,0,0,6.43-6.59l3.24,1.49a.74.74,0,0,1,.41.69l-.33,6.5a1,1,0,0,0,1,1.05h0a1,1,0,0,0,1-.95l.33-6.5a2.72,2.72,0,0,0-1.57-2.6l-3.14-1.45a24,24,0,0,0,1.87-5.39l4.13,1.91a1.15,1.15,0,0,1,.67,1.1L783,335.3a1,1,0,0,0,1,1h0a1,1,0,0,0,1-1l.41-8.17a3.14,3.14,0,0,0-1.82-3L779,322.07l0-.3,4.61-2.13a3.13,3.13,0,0,0,1.82-3l-.41-8.16a1,1,0,1,0-2,.1l.42,8.16a1.16,1.16,0,0,1-.67,1.11l-3.73,1.72a13.91,13.91,0,0,0-2.83-7.66H753.75a13.85,13.85,0,0,0-2.84,7.66l-3.73-1.72a1.16,1.16,0,0,1-.67-1.11l.42-8.16a1,1,0,1,0-2-.1l-.41,8.16a3.13,3.13,0,0,0,1.82,3l4.61,2.13,0,.3-4.64,2.14A3.14,3.14,0,0,0,744.52,327.23Z" transform="translate(-284.8 -193.27)"/><path d="M776.34,295a1,1,0,0,0,1-1,1,1,0,0,0-1-1c-4.89.12-7.09,4.87-7.85,7.08a10.19,10.19,0,0,0-3.46-.6,10.45,10.45,0,0,0-3.42.58c-.77-2.22-3-6.94-7.85-7.06h0a1,1,0,0,0,0,2c3.73.09,5.49,4.19,6.06,5.89a10.54,10.54,0,0,0-5.28,9h21.08a10.54,10.54,0,0,0-5.25-8.95C770.84,299.24,772.59,295.1,776.34,295Z" transform="translate(-284.8 -193.27)"/><path d="M765,327.3l-2.56,11.35a8.39,8.39,0,0,0,5.12,0Z" transform="translate(-284.8 -193.27)"/><rect x="111.83" y="151.58" width="81.67" height="53.06" rx="3.06" fill="#fff" stroke="#000" stroke-miterlimit="10" stroke-width="2"/><path d="M454.85,344.87H396.63v-11.7h37.43Z" transform="translate(-284.8 -193.27)" fill="none" stroke="#000" stroke-miterlimit="10" stroke-width="2"/><rect x="139.56" y="174.69" width="26.2" height="24.17" rx="5.47" fill="gray" stroke="#000" stroke-miterlimit="10" stroke-width="2"/><circle cx="152.66" cy="185.28" r="2.09" stroke="#000" stroke-miterlimit="10" stroke-width="2"/><ellipse cx="152.66" cy="189.33" rx="0.94" ry="2.55" stroke="#000" stroke-miterlimit="10" stroke-width="2"/><path d="M428.05,368.7c-1.51-7.58,2.86-13.8,8.75-13.8s9.35,6.26,9.35,8.49" transform="translate(-284.8 -193.27)" fill="none" stroke="#000" stroke-miterlimit="10" stroke-width="4"/></g></svg>