<svg id="Layer_1" data-name="Layer 1" xmlns="http://www.w3.org/2000/svg" viewBox="0 0 395 104"><path d="M31.5,206.88a28.38,28.38,0,0,1,0-56.76h338a28.38,28.38,0,0,1,0,56.76Z" transform="translate(-3 -150)" fill="#fff"/><path d="M369.5,150.25a28.25,28.25,0,0,1,0,56.5H31.5a28.25,28.25,0,0,1,0-56.5h338m0-.25H31.5A28.5,28.5,0,0,0,3,178.5H3A28.5,28.5,0,0,0,31.5,207h338A28.5,28.5,0,0,0,398,178.5h0A28.5,28.5,0,0,0,369.5,150Z" transform="translate(-3 -150)" fill="#999"/><rect x="143.13" y="68.13" width="107.75" height="35.75" fill="#f2f2f2"/><path d="M253.75,218.25v35.5H146.25v-35.5h107.5M254,218H146v36H254V218Z" transform="translate(-3 -150)" fill="#999"/><circle cx="27.5" cy="26.5" r="10.5" fill="#fff"/><path d="M30.5,168a8.5,8.5,0,1,1-8.5,8.5,8.51,8.51,0,0,1,8.5-8.5m0-4A12.5,12.5,0,1,0,43,176.5,12.5,12.5,0,0,0,30.5,164Z" transform="translate(-3 -150)"/><line x1="33" y1="34" x2="43" y2="48" fill="none" stroke="#000" stroke-miterlimit="10" stroke-width="4"/></svg>