<svg id="Layer_10" data-name="Layer 10" xmlns="http://www.w3.org/2000/svg" viewBox="0 0 509.56 464"><g id="Layer_11" data-name="Layer 11"><path d="M681,507.87l-55.86,13.5c-3.68-7.93-7.77-16.18-12.3-24.67s-9.18-16.57-13.75-24.08a220,220,0,0,1-61-41.34c-11.41-11-29.18-28.33-42.09-56.09-6.7-14.41-10.95-30.8-19.44-63.6-3.43-13.22-6-24.28-7.73-32-6.87-8.78-6.7-20.83-.1-28.52,5.83-6.79,15.46-8.75,23.44-6.12,10.38,3.43,13.95,13.3,14.35,14.48a285.1,285.1,0,0,1,12.95,35.67c5.8,20.18,6.76,32.22,17.41,46.25,2.33,3.06,3.28,3.79,11.37,12.09S577,385.71,577.94,385c.62-.47-6.65-11.57-35.88-51.47-.14-.65-2.53-12.32,4.71-18.47,5.36-4.54,12.67-3.25,15.47-2.76,11.92,2.1,18.19,10.9,29.31,23.55,20.72,23.55,31.08,35.33,46.74,45.78,7.92,5.29,14.29,8.35,19.33,16.74,4.68,7.79,4.46,13.94,6.52,27,2.31,14.64,3.69,13.8,8.61,35.63C675.2,471.83,678.4,487.76,681,507.87Z" transform="translate(-458.8 -63.32)" fill="#e0dbcf" stroke="#000" stroke-miterlimit="10" stroke-width="10"/><path d="M728.72,503.72l54.71,17.59c4.25-7.64,8.94-15.56,14.09-23.69s10.37-15.85,15.49-23a220,220,0,0,0,63.84-36.72c12.19-10.09,31.2-26.1,46.12-52.83,7.75-13.87,13.19-29.91,24.09-62,4.39-12.94,7.78-23.78,10.07-31.34,7.5-8.24,8.22-20.28,2.2-28.44-5.31-7.2-14.77-9.87-22.92-7.83-10.61,2.66-14.89,12.23-15.38,13.38a281.63,281.63,0,0,0-15.54,34.62c-7.28,19.7-9.13,31.63-20.79,44.83-2.55,2.88-3.55,3.54-12.23,11.22s-31,30.05-31.87,29.25c-.58-.52,7.49-11,39.58-48.68.2-.64,3.44-12.1-3.33-18.77-5-4.93-12.39-4.18-15.22-3.9-12,1.22-18.94,9.53-31,21.32-22.4,22-33.61,32.94-50,42.21-8.29,4.69-14.87,7.26-20.52,15.26-5.24,7.43-5.48,13.58-8.49,26.41-3.39,14.43-4.7,13.5-11.22,34.9C737.19,468.21,732.82,483.86,728.72,503.72Z" transform="translate(-458.8 -63.32)" fill="#e0dbcf" stroke="#000" stroke-miterlimit="10" stroke-width="10"/><rect x="139.17" y="5" width="231.85" height="215.43" rx="41.25" fill="#d6ffe0" stroke="#000" stroke-miterlimit="10" stroke-width="10"/><path d="M757.56,203.47l-43.23,36L670,206q-11.55-36.75-23.08-73.51l64-19.89,70.07,19.35Q769.24,167.71,757.56,203.47Z" transform="translate(-458.8 -63.32)" fill="#6c6b86" stroke="#000" stroke-miterlimit="10" stroke-width="24"/><rect x="247.17" y="84.6" width="15.85" height="48.76" fill="#f5fff7"/><rect x="705.97" y="147.92" width="15.85" height="48.76" transform="translate(82.8 822.88) rotate(-90)" fill="#f5fff7"/></g></svg>