<svg xmlns="http://www.w3.org/2000/svg" viewBox="0 0 332.84 351.46"><g id="Layer_2" data-name="Layer 2"><g id="Layer_16" data-name="Layer 16"><g id="Layer_17" data-name="Layer 17"><path d="M330,166.46c17.34,19.67-45.55,186.11-168,185C73.81,350.66,0,263.36,0,177,0,68.83,117.61-15.67,162,2.46c12.64,5.16,7.4,28.74,26,38,20.11,10,39.93-8.31,54,3,11.7,9.41,2.21,25.46,15,37,14,12.62,35.3,2.37,41,13,3.24,6-2.64,10.17-5,29-1.43,11.4-3,23.71,3,32C305.11,167.1,324,159.6,330,166.46Z" fill="#a67c52"/><path d="M103.55,225.86l-7.83,2.79a3.73,3.73,0,0,0-2.42,2.56,2.89,2.89,0,0,0,1.08,3,3.71,3.71,0,0,0,3.48.46l7.84-2.8,20.9,23.25a10.73,10.73,0,0,0-5.77,7.93,8.64,8.64,0,0,0,3.69,8.27,11.22,11.22,0,0,0,9.88,1.25L175.27,258a3.72,3.72,0,0,0,2.41-2.55,2.89,2.89,0,0,0-1.08-3,3.74,3.74,0,0,0-3.48-.45l-40.87,14.56a3.71,3.71,0,0,1-3.48-.45,2.9,2.9,0,0,1-1.08-3,3.74,3.74,0,0,1,2.41-2.56l30-10.68a16.53,16.53,0,0,0,7.28-5.13,13.75,13.75,0,0,0,3.12-7.76l1.21-20.62a2.9,2.9,0,0,0-1.38-2.63,3.82,3.82,0,0,0-3.26-.3L116,231.62a4.82,4.82,0,0,0-.66.3l-3.93-4.37a6.53,6.53,0,0,0-3.52-2,7.91,7.91,0,0,0-4.3.3Zm60.71-4.66-.91,15.91a7.18,7.18,0,0,1-1.62,4,8.61,8.61,0,0,1-3.8,2.67l-24.18,8.62L119.87,237Z"/><path d="M131.88,287.05a9.08,9.08,0,0,0,5.27,5.33,11.88,11.88,0,0,0,14.45-5.15A8.84,8.84,0,0,0,147,274.45a11.87,11.87,0,0,0-14.44,5.15,9,9,0,0,0-.72,7.45Zm13.62-4.85h0a3,3,0,0,1-.23,2.48,3.92,3.92,0,0,1-2.1,1.75,3.86,3.86,0,0,1-2.72,0,2.94,2.94,0,0,1-1.52-4.26,3.94,3.94,0,0,1,4.82-1.71,3,3,0,0,1,1.75,1.77Z"/><path d="M169.53,263.45a11.62,11.62,0,0,0-6.28,5.23,8.83,8.83,0,0,0,4.55,12.78,11.88,11.88,0,0,0,14.45-5.15,8.82,8.82,0,0,0-4.55-12.78,11.6,11.6,0,0,0-8.17-.08Zm4.29,12.05a3.86,3.86,0,0,1-2.72,0,3.06,3.06,0,0,1-1.76-1.78,3,3,0,0,1,.24-2.48,4,4,0,0,1,4.82-1.72,3,3,0,0,1,1.52,4.26A3.83,3.83,0,0,1,173.82,275.5Z"/><text transform="translate(184.17 138.5) rotate(36.57) scale(1.03 1)" font-size="39.19" font-family="ToppanBunkyuMidashiMinchoStdN-ExtraBold-83pv-RKSJ-H, Toppan Bunkyu Midashi Mincho">日本語</text><path d="M35.22,164.93l1.14-.74,12.24,19L53,180.29l1.49,2.3L49,186.18Z"/><path d="M53.78,177.28c-2.28-3.53-2-6.15,1-9-1.42-2.11-3-3.65-4.31-2.82-.86.56-1.08,2.08-1.11,3.38l-1.63-1.52c0-1.48.34-3.43,1.5-4.18,1.82-1.18,4.36.81,6.9,4.73l6.23,9.66-.94.6L60,176.05l0,0c.16,1.83,0,3.62-1,4.22C57.69,181.09,55.6,180.1,53.78,177.28Zm4.8-3.15-2.64-4.08c-2.5,2.35-2.51,4.24-1.17,6.31,1.15,1.78,2.3,2.06,3.06,1.56S58.78,176.12,58.58,174.13Z"/><path d="M63.15,174.07,62.52,172c1.6.8,3,1.06,4.26.27s1-2.18.1-3.5-1.58-1.88-3.95-1.59-4-.56-5.56-2.92c-1.64-2.53-1.95-5.08-.13-6.26,1-.65,2.63-.36,4,.28l.57,2.07a3.4,3.4,0,0,0-3.3-.21c-1.12.72-.84,2.06-.06,3.26.87,1.36,1.83,1.57,3.63,1.37,2.93-.29,4.3.66,5.87,3.09s2,5.38.09,6.61C66.71,175.27,64.81,174.88,63.15,174.07Z"/><path d="M70.58,163.54l-4.82-7.46-1.88,1.22-1.3-2,1.82-1.4-3.11-5.16.94-.6,3.27,5.05,3.25-2.1,1.4,2.17-3.25,2.1,4.83,7.49c1.82,2.81,3.16,4,4.45,3.19a2.87,2.87,0,0,0,1.12-1.74l1.52,1.82a3.69,3.69,0,0,1-1.47,2.28C75.41,169.64,73.09,167.42,70.58,163.54Z"/><path d="M75,139.26l1.23-.79L85,149c1.93,2.29,3.47,4.19,5.39,6.44l0,0c-1.26-2.68-2.35-4.87-3.66-7.56l-6-12.39,1.18-.76L92.9,157.8l-1.34.86Z"/><path d="M86.52,132c-.79-1.23-1-2.32-.44-2.66s1.45.26,2.24,1.49,1,2.32.44,2.66S87.34,133.24,86.52,132Zm5.33,7.25-3.08,2-1.4-2.17,4.21-2.72,10.17,15.75-1.13.73Z"/><path d="M104.14,147.6l-.63-2.12c1.6.8,3,1.06,4.27.27s1-2.17.09-3.5-1.58-1.88-3.94-1.59-4-.55-5.57-2.92c-1.64-2.53-2-5.08-.13-6.25,1-.66,2.63-.37,4,.28l.56,2.07c-1.27-.61-2.45-.77-3.3-.22-1.12.73-.84,2.06-.06,3.26.88,1.36,1.83,1.57,3.63,1.37,2.94-.29,4.31.66,5.88,3.09s2,5.38.08,6.61C107.7,148.79,105.81,148.4,104.14,147.6Z"/><path d="M102.92,121.39c-.8-1.24-1-2.33-.44-2.66s1.45.26,2.24,1.49,1,2.32.44,2.66S103.73,122.65,102.92,121.39Zm5.33,7.25-3.08,2-1.4-2.17,4.21-2.72,10.17,15.75-1.14.73Z"/><path d="M119.77,131.76,115,124.31l-1.88,1.22-1.3-2,1.82-1.41L110.48,117l.94-.61,3.27,5.06,3.25-2.1,1.4,2.17-3.25,2.1,4.83,7.48c1.82,2.82,3.16,4,4.45,3.2a2.87,2.87,0,0,0,1.12-1.74l1.52,1.82a3.72,3.72,0,0,1-1.47,2.28C124.6,137.87,122.28,135.65,119.77,131.76Z"/><path d="M124.93,125.9c-3.31-5.12-3.7-9.27-1.93-10.42s4.94,1,7.81,5.43c.4.62.74,1.22,1,1.66l-5.62,3.62-1.34-2.07,4.95-3.19.19.93c-2.4-3.73-4.37-5.07-5.59-4.29s-.87,3.69,1.66,7.61c2.64,4.08,5.1,5.43,6.57,4.48.79-.51,1-1.5,1.06-2.8l1.54,1.49c0,1.46-.29,2.85-1.35,3.54C131.87,133.18,128.32,131.15,124.93,125.9Z"/><path d="M133.06,120.74c-3.31-5.12-3.92-9.22-2.35-10.23.79-.52,1.89-.17,3.29.72l0,0-1.92-2.85-3.91-6.06,1.13-.73,14.9,23.07-.93.6-1.43-2,0,0c.31,1.69.25,3.33-.58,3.87C139.53,128.23,136.45,126,133.06,120.74Zm7.32.42-5.07-7.84c-1.46-.94-2.33-1.07-2.9-.7-1.15.75-.53,3.74,1.79,7.34,2.43,3.76,4.61,5.52,5.83,4.73C140.68,124.27,140.79,123.09,140.38,121.16Z"/><path d="M139.48,107.92c-1-1.62-1.29-3.07-.68-3.47s1.84.42,2.89,2,1.29,3.07.67,3.47S140.54,109.57,139.48,107.92Zm7.49,11.6c-1.05-1.62-1.29-3.07-.67-3.47s1.84.42,2.88,2,1.29,3.07.67,3.47S148,121.17,147,119.52Z"/><path d="M149.15,91.34l1.4-.9,7.12,8.26,2.65,3.15.06,0-1.8-3.7L154,88.21l1.39-.9,13.74,21.26-1.1.7-6.86-10.62c-1.34-2.08-3.55-5.79-4.67-7.64l0,0,2.17,4.48,4.12,9.18-.82.53-6.66-7.54-3.19-3.82,0,0c1.25,1.76,3.71,5.32,5,7.4L164,111.9l-1.07.69Z"/><path d="M161.07,81.16l1-.65,13.73,31.08-1,.65Z"/><path d="M165.76,80.61,168,79.18c2.69-1.74,6.6,1.11,11,7.85s5.46,11.67,2.82,13.37l-2.26,1.47Zm14.41,17.65c2-1.32,1-5.08-2.43-10.46s-6.37-7.64-8.41-6.33l-1,.64,10.84,16.78Z"/><path d="M177.47,70.57l1-.66L192.21,101l-1,.65Z"/><path d="M193.32,82.19,181.48,70.45l1.22-.78,5.4,5.42c1.41,1.43,2.77,2.85,4.23,4.29l0,0c-.73-1.91-1.42-3.76-2.15-5.64l-2.76-7.12,1.17-.76,5.83,15.61,4.9,7.59-1.15.74Z"/></g></g></g></svg>