<svg xmlns="http://www.w3.org/2000/svg" viewBox="0 0 332.84 351.46"><g id="Layer_2" data-name="Layer 2"><g id="Layer_16" data-name="Layer 16"><g id="Layer_17" data-name="Layer 17"><path d="M330,166.46c17.34,19.67-45.55,186.11-168,185C73.81,350.66,0,263.36,0,177,0,68.83,117.61-15.67,162,2.46c12.64,5.16,7.4,28.74,26,38,20.11,10,39.93-8.31,54,3,11.7,9.41,2.21,25.46,15,37,14,12.62,35.3,2.37,41,13,3.24,6-2.64,10.17-5,29-1.43,11.4-3,23.71,3,32C305.11,167.1,324,159.6,330,166.46Z" fill="#a67c52"/><path d="M137.05,80.52c1,1.4,3.06,1.8,5,2.19l.1,0a33.3,33.3,0,0,0-5.84-12.33c-.92,1.95-.67,4.28-.28,6.9a7.2,7.2,0,0,0,1,3.22Z"/><path d="M110.77,55.6h0A22.7,22.7,0,0,0,116,60.23a25,25,0,0,0,2.21-3.13c1.3-2.17,2.5-5,2.09-7.61a5.88,5.88,0,0,0-11.63,1.79,9.43,9.43,0,0,0,2,4.3l0,0Zm3.42-7.35a2.19,2.19,0,1,1-1.87,2.5A2.21,2.21,0,0,1,114.19,48.25Z"/><path d="M107.45,62.55a12.21,12.21,0,0,0,.68,1.85,3.32,3.32,0,0,0,2,1.87c1.09.23,2.3-.52,3.22-1.2l.27-.2a7.65,7.65,0,0,1,4-1.87,7.39,7.39,0,0,1,2.76.48c.28.09.54.17.81.24A8.93,8.93,0,0,0,128,62.6a34.21,34.21,0,0,0-8.55-4.06,25.4,25.4,0,0,1-2.56,3.4.91.91,0,0,1-.52.27.88.88,0,0,1-.57-.1A25,25,0,0,1,109.64,57a35.3,35.3,0,0,0-5.23.31,11.32,11.32,0,0,1,2.53,3.78c.2.5.35,1,.51,1.48Z"/><path d="M133.18,101.62a21.83,21.83,0,0,0,4-7h0a.19.19,0,0,1,0-.08,8.61,8.61,0,0,0,.32-3.69,5.88,5.88,0,0,0-11.63,1.79c.44,2.9,2.85,5.47,4.9,7.17a26.76,26.76,0,0,0,2.43,1.79Zm-1.84-12a2.19,2.19,0,1,1-1.87,2.5,2.21,2.21,0,0,1,1.87-2.5Z"/><path d="M118.59,83.81a6.94,6.94,0,0,0-2.74-.71,11.32,11.32,0,0,0-3.42.07,4.71,4.71,0,0,0-2.68,1.46,3.44,3.44,0,0,0-.8,2.49l0,.31a3.55,3.55,0,0,1,0,1.22,4.09,4.09,0,0,1-.55,1.29c-.19.32-.38.65-.33.81s.32.24.62.23a4.14,4.14,0,0,0,1-.23l.6-.17a2.94,2.94,0,0,1,2.52.33A3.06,3.06,0,0,1,114,93a3.54,3.54,0,0,0,.94,2.16,1.58,1.58,0,0,0,1.87.1,3.29,3.29,0,0,0,1-2.51c0-.27,0-.53,0-.82a8.36,8.36,0,0,1,.39-3,9.33,9.33,0,0,1,.83-1.53,3.93,3.93,0,0,0,.8-1.82,2.21,2.21,0,0,0-1.21-1.81Z"/><path d="M142.57,84.57l-.41-.08-.43-.09c-2.19-.43-4.68-.92-6.1-2.87a8.58,8.58,0,0,1-1.3-4c-.35-2.32-.82-5.5.56-8.15.08-.15.17-.31.27-.47a33.82,33.82,0,0,0-5.67-5.28,11.29,11.29,0,0,1-4.73,1.92,10.12,10.12,0,0,1-4.07-.19l-.88-.26a6,6,0,0,0-2.12-.41,6.24,6.24,0,0,0-3,1.53,2.83,2.83,0,0,1-.28.2A7.62,7.62,0,0,1,111.17,68a3.84,3.84,0,0,1-1.43,0,4.87,4.87,0,0,1-3.19-2.8,15.05,15.05,0,0,1-.77-2.08c-.15-.48-.29-.93-.47-1.36a9.52,9.52,0,0,0-3.11-4A34.34,34.34,0,0,0,84.77,67a14.53,14.53,0,0,0,.56,3.79A6.74,6.74,0,0,0,89,75.2a10.49,10.49,0,0,0,2.54.54c.47.07,1,.13,1.44.23A5.49,5.49,0,0,1,97,78.57a4.25,4.25,0,0,1-.14,3.78,9.84,9.84,0,0,1-2.28,2.94l-.32.3c-1.46,1.33-3,2.71-3,4.37s1.67,3,2.39,3.5a20.14,20.14,0,0,0,1.77,1.05,17,17,0,0,1,2.76,1.78c1.39,1.16,2.78,3.29,2.11,5.48-.62,2-2.61,3-4.17,3.55-.46.15-.94.29-1.39.41a10.81,10.81,0,0,0-3,1.15,10.47,10.47,0,0,0-2.78,3.19,20.56,20.56,0,0,1-1.85,2.49,9.71,9.71,0,0,1-2.54,1.92,35,35,0,0,0,4,3.38,34.53,34.53,0,0,0,21.25,6.47,8.41,8.41,0,0,0,.41-3,8.57,8.57,0,0,0-.93-2.68c-.21-.45-.43-.91-.62-1.39-.81-2.11-.59-4.07.61-5.24,1.73-1.7,4.35-1,6.43-.27,1.55.57,3.57,1,4.48,0,.58-.7.5-1.8.4-3-.1-1.36-.22-2.9.73-4.14a5.64,5.64,0,0,1,3.65-1.76,9.69,9.69,0,0,0,1.81-.5,5.6,5.6,0,0,0,2.1-1.77c-2.12-1.88-4.38-4.56-4.86-7.68a7.63,7.63,0,0,1,15.09-2.32,9.33,9.33,0,0,1-.05,3l1.36-.35a12.94,12.94,0,0,0,2.54-1,33.23,33.23,0,0,0-.49-7.71Zm-21,1.08a5.29,5.29,0,0,1-1.07,2.7,8,8,0,0,0-.67,1.23,6.66,6.66,0,0,0-.28,2.37c0,.29,0,.58,0,.88a4.65,4.65,0,0,1-1.68,3.85,3.33,3.33,0,0,1-4.07-.22,5,5,0,0,1-1.48-3.16h0a1.4,1.4,0,0,0-.48-1,1.32,1.32,0,0,0-1,0l-.52.15a5.72,5.72,0,0,1-1.46.3,2.29,2.29,0,0,1-2.35-1.44,2.63,2.63,0,0,1,.48-2.17,3.19,3.19,0,0,0,.36-.76,2.73,2.73,0,0,0,0-.68c0-.12,0-.25,0-.38a5.14,5.14,0,0,1,1.19-3.74,6.51,6.51,0,0,1,3.68-2,13.28,13.28,0,0,1,4-.09,8.39,8.39,0,0,1,3.45.93,3.86,3.86,0,0,1,2.07,3.33Z"/><path d="M139.22,95.41l-.54.13a24.1,24.1,0,0,1-4.68,7.79.91.91,0,0,1-.52.27.89.89,0,0,1-.57-.11,23.38,23.38,0,0,1-2.6-1.77,7.23,7.23,0,0,1-2.73,2.23,10.56,10.56,0,0,1-2.16.61,4.25,4.25,0,0,0-2.61,1.12,4.39,4.39,0,0,0-.37,3c.11,1.39.23,3-.81,4.2a3.86,3.86,0,0,1-3.21,1.28,10.31,10.31,0,0,1-3.22-.7c-1.6-.59-3.57-1.14-4.59-.14-.81.8-.64,2.28-.2,3.41.16.42.36.84.57,1.28a9.93,9.93,0,0,1,1.08,3.23,8.69,8.69,0,0,1-.32,3c.78-.07,1.57-.16,2.34-.28a34.27,34.27,0,0,0,22.36-13.42,33.41,33.41,0,0,0,6.46-16.25,15.32,15.32,0,0,1-1.91.67c-.59.17-1.19.32-1.77.47Z"/><path d="M87.59,109.13a12,12,0,0,1,3.28-3.69,12.49,12.49,0,0,1,3.47-1.37c.45-.12.88-.24,1.31-.39.95-.31,2.62-1.05,3-2.41s-.5-2.78-1.57-3.67A15.68,15.68,0,0,0,94.64,96c-.64-.36-1.29-.72-1.91-1.14-1.17-.79-3.14-2.49-3.14-4.91s1.86-4.13,3.52-5.64l.32-.3c.7-.64,2.92-2.88,2-4.7a4,4,0,0,0-2.83-1.67c-.43-.09-.87-.14-1.33-.21a12.55,12.55,0,0,1-3-.64,8.38,8.38,0,0,1-4.69-5.57,14.14,14.14,0,0,1-.51-2.56c-.59.69-1.17,1.39-1.71,2.12s-1.21,1.71-1.75,2.59a7.55,7.55,0,0,1,5.82,6.18c.92,6-5,12.45-5.22,12.72a.88.88,0,0,1-.51.27.9.9,0,0,1-.58-.1,26.3,26.3,0,0,1-4.38-3.3,33.22,33.22,0,0,0,8.6,24,7.79,7.79,0,0,0,2.5-1.78,17.45,17.45,0,0,0,1.68-2.26Z"/><path d="M74.79,86.64h0a23.77,23.77,0,0,0,4.67,3.93c1.33-1.6,5-6.46,4.31-10.74a5.83,5.83,0,0,0-5.54-4.9,5.68,5.68,0,0,0-1.16.06,5.85,5.85,0,0,0-4.94,6.62,10.14,10.14,0,0,0,2.57,4.93l.09.09Zm2.83-8a2.22,2.22,0,0,1,2.53,1.83,2.22,2.22,0,1,1-2.53-1.83Z"/><path d="M268.6,159.37l-89.48-30.62a4.89,4.89,0,0,0-6.31,2.81l-25.38,74.13a4.9,4.9,0,0,0,3.27,6.09l89.48,30.63a4.9,4.9,0,0,0,6.31-2.81l25.38-74.14a4.91,4.91,0,0,0-3.27-6.09Zm-90.49-27.66,89.47,30.63a1.63,1.63,0,0,1,1.09,2l-3,8.89L173,141.55l3-8.9a1.64,1.64,0,0,1,2.11-.94Zm63.08,107.73-89.47-30.62a1.64,1.64,0,0,1-1.09-2L172,144.51l92.66,31.72L243.3,238.5a1.64,1.64,0,0,1-2.11.94ZM179.53,138a2.54,2.54,0,1,1,1.63,3,2.45,2.45,0,0,1-1.63-3Zm8,2.73a2.54,2.54,0,1,1,1.63,3.05,2.46,2.46,0,0,1-1.63-3.05Zm8,2.74a2.54,2.54,0,1,1,1.63,3A2.44,2.44,0,0,1,195.51,143.47Zm22.13,26.74c-14.14-6.33-29.61.3-34,13.09-4.17,12.17,3.08,25.8,16.14,30.38h0c6.24,2.14,10.5-4.93,5.86-9.07-1-.91-.13-2.22,1.2-1.76l6,2c12,4.12,18.82-.62,19.73-9.45,1.34-10.16-4.73-20.63-15-25.23Zm-3.77,31.72-5.94-2c-4.8-1.64-8.12,3.7-4.46,7,2,1.75.2,4.82-2.61,3.86h0c-11.32-4-17.6-15.77-14-26.32,3.78-11.06,17.18-16.86,29.46-11.35a22.55,22.55,0,0,1,10.92,10.41l0,0a19.73,19.73,0,0,1,2,11.4l0,.18c-.82,8-7,9.72-15.37,6.85Zm1.51-22.67a3.39,3.39,0,1,1-2.18-4.06A3.26,3.26,0,0,1,215.38,179.26Zm8.61,5a3,3,0,0,1-1.43,4.19,3.57,3.57,0,0,1-4.52-1.54,3,3,0,0,1,1.44-4.2A3.55,3.55,0,0,1,224,184.23Zm-20.33-7a3,3,0,0,1-1.44,4.19,3.56,3.56,0,0,1-4.51-1.54,3,3,0,0,1,1.43-4.2A3.57,3.57,0,0,1,203.66,177.27Zm-7.22,10.41a3.39,3.39,0,1,1-2.18-4.06A3.26,3.26,0,0,1,196.44,187.68Z"/><path d="M113.79,219.85,77,229.28l1.49,5.83,36.78-9.43Zm-33.91,13.6-.49.13-.9-3.48L79,230Z"/><path d="M116.34,229.77,79.56,239.2l1.5,5.83,36.77-9.43Zm-33.89,13.7-.49.13-.9-3.48.5-.12Z"/><path d="M119.32,180.19l-66,16.93a3.25,3.25,0,0,0-2.25,4l19.28,75.14a3.23,3.23,0,0,0,3.87,2.39l66-16.94a3.24,3.24,0,0,0,2.25-3.95L123.2,182.57a3.24,3.24,0,0,0-3.88-2.38ZM88,195.4A9.63,9.63,0,0,1,98.5,209.5a7.65,7.65,0,0,0-5.3-3A4.85,4.85,0,0,0,94.35,202a4.77,4.77,0,0,0-5.76-3.54,4.7,4.7,0,0,0-3.34,5.87,5,5,0,0,0,3.43,3.48,7,7,0,0,0-3,5.13A10,10,0,0,1,81.42,207,9.36,9.36,0,0,1,88,195.4Zm23.13,61.85-13.24,3.39-.21-.81,13.24-3.4Zm11.06-7.85-38.16,9.79-1.58-6.14,38.16-9.79Zm-3.14-13L80.33,246.3l-2-7.87,38.75-9.94Zm-2.54-9.91-38.75,9.94-2-7.88,38.75-9.94Z"/></g></g></g></svg>