<svg xmlns="http://www.w3.org/2000/svg" viewBox="0 0 365 394"><g id="Layer_2" data-name="Layer 2"><g id="Layer_18" data-name="Layer 18"><rect x="3.5" y="3.5" width="358" height="387" rx="30.29" fill="#ccc" stroke="#000" stroke-miterlimit="10" stroke-width="7"/><rect x="42.5" y="36.5" width="279" height="321" rx="30.29" fill="#9fa2ff" stroke="#000" stroke-miterlimit="10" stroke-width="7"/><path d="M118.18,272a104.51,104.51,0,0,0,17.88-5.08c11.12-4.09,20.88-8.74,29.55-12.76s16.2-7.58,22.51-10.22a99.4,99.4,0,0,1,14.94-5.27,27.72,27.72,0,0,1,4.11-.7l1.43-.08h-1.43a28.86,28.86,0,0,0-4.17.48,90.42,90.42,0,0,0-15.26,4.58c-6.43,2.4-14.11,5.66-22.92,9.36-4.39,1.85-9.08,3.82-14,5.8s-10.18,4-15.71,5.88a100.75,100.75,0,0,1-17.42,4.43,35.31,35.31,0,0,1-9.12.23l-2.44-.3c-.81-.11-1.53-.3-2.31-.44a40.91,40.91,0,0,1-4.59-1.21,28.83,28.83,0,0,1-8.42-4.45,24,24,0,0,1-6.27-7.32C81.27,249.14,80.1,242,80,234.84a133.56,133.56,0,0,1,2-22.18q.94-5.67,1.9-11.41l.23-1.44,0-.19c0-.09,0,.13,0,0l.08-.36.15-.71c.1-.47.19-1,.31-1.42l.38-1.26.38-1.28.46-1.32c.32-.9.61-1.79,1-2.68a171.5,171.5,0,0,1,9.92-21,182.65,182.65,0,0,1,12.54-19.69,117.73,117.73,0,0,1,15.21-17.36l2.13-1.88,1-.88,1.16-.89c1.56-1.15,3.11-2.43,4.67-3.47s3.1-2.05,4.7-3l4.92-2.76a101.87,101.87,0,0,1,42.35-11.17c1.77-.06,3.54,0,5.22.07l1.1.11,1.33.27c.88.19,1.69.42,2.53.62a103.7,103.7,0,0,0,10.69,2.15c1.77.31,3.61.36,5.4.55s3.62,0,5.42.06l2.69-.28c.93-.12,1.73-.14,2.74-.35l1.25-.27c.42-.09.92-.27,1.38-.4a10.2,10.2,0,0,0,1.35-.49c.42-.18.87-.33,1.28-.55,3.38-1.63,5.94-4,8.54-5.63a27.36,27.36,0,0,1,8.25-3.65l2.2-.48,2.25-.34,2.13-.17c.73,0,1.46,0,2.18,0a25.41,25.41,0,0,1,8.26,1.59,15.13,15.13,0,0,1,7.75,5.83c.34.54.62,1.1.93,1.65s.47,1.16.66,1.75.32,1.26.41,1.77c.16,1.34.32,2.68.48,4a18.9,18.9,0,0,1,.19,2c0,.63,0,1.26,0,1.88,0,1.25.12,2.47,0,3.69s-.21,2.42-.31,3.6a43.38,43.38,0,0,1-3.64,12.71,27,27,0,0,1-1.41,2.67,18.67,18.67,0,0,1-1.51,2.45l-1.59,2.25c-.59.68-1.16,1.34-1.73,2a29.41,29.41,0,0,1-13,8.62c-.86.34-1.67,0-2.35.15-.34.05-.66-.22-1-.22h-.79a2.46,2.46,0,0,0-1.43.37,4.49,4.49,0,0,0,1.43.26c.24,0,.5.12.8.14s.61,0,1-.06a12.43,12.43,0,0,0,2.4-.38,17.24,17.24,0,0,0,2.95-.92l1.66-.66,1.7-.93a31,31,0,0,0,3.66-2.35c.63-.46,1.2-1,1.83-1.55a16,16,0,0,0,1.86-1.75l1.85-2,1.73-2.26a19.72,19.72,0,0,0,1.66-2.47,29.68,29.68,0,0,0,1.56-2.7,44.93,44.93,0,0,0,4.29-13.1A58.47,58.47,0,0,0,274,112a15.19,15.19,0,0,0-3.61-8.3,19.9,19.9,0,0,0-7.57-5.34,28.55,28.55,0,0,0-9.23-2.05c-.8,0-1.61,0-2.42,0l-2.49.12-2.39.3-2.43.46a30.23,30.23,0,0,0-9.43,3.91c-2.94,1.84-5.45,4-8.2,5.22a10.44,10.44,0,0,1-1.05.42,7.25,7.25,0,0,1-1,.36c-.36.09-.65.21-1.06.29l-1.25.25c-1.46.19-3.18.29-4.78.44-1.65-.06-3.31,0-5-.16s-3.36-.28-5-.62-3.39-.58-5.09-1-3.4-.81-5.16-1.25c-.91-.23-1.84-.49-2.73-.69L192.7,104l-.28-.05-.19,0-.38,0-.76-.09c-1.93-.14-3.81-.19-5.7-.15a103.65,103.65,0,0,0-22.61,3.09,100.16,100.16,0,0,0-22,8.19l-5.21,2.9c-1.72,1-3.41,2.18-5.12,3.28s-3.15,2.33-4.73,3.49l-1.18.89-1.21,1-2.29,2a122.09,122.09,0,0,0-16,18.09A189.81,189.81,0,0,0,92.25,167a177.28,177.28,0,0,0-10.14,21.68c-.36.93-.67,1.9-1,2.84L80.61,193l-.44,1.54L79.73,196c-.13.5-.2,1-.31,1.44l-.15.71-.07.36-.09.49-.21,1.43Q78,206.2,77.13,211.9a137.3,137.3,0,0,0-1.79,23,60.51,60.51,0,0,0,1.3,11.45,36.4,36.4,0,0,0,4.1,10.76,28.43,28.43,0,0,0,7.54,8.47,32.69,32.69,0,0,0,9.7,4.89,45.43,45.43,0,0,0,5.12,1.24c.85.14,1.74.34,2.56.42l2.44.26a38.2,38.2,0,0,0,10.08-.47Zm152.31-1.75,0,0s0,0,0,0l0,0,.22.34a3.79,3.79,0,0,1,.37.66,5.07,5.07,0,0,1,.33,1.17,9.76,9.76,0,0,1,0,2.7c-.18,1.81-.59,3.51-.85,5.08-.6,3.11-.43,5.82.41,7.34.22.36.42.69.58,1s.4.44.54.6l.44.49-.38-.53c-.13-.18-.3-.39-.46-.65l-.45-1c-.65-1.54-.48-4,.35-7,.39-1.5,1-3.14,1.34-5.07a10.61,10.61,0,0,0,.21-3.18,6.74,6.74,0,0,0-.41-1.85,5.24,5.24,0,0,0-.36-.75l-.19-.36,0-.09-.09-.14,0,0-.12-.17c-2.45-3.6-5.22-7.66-8.29-12-6.11-8.77-13.24-19-20.89-30q-1.32-2-2.67-4c-.46-.63-.87-1.41-1.3-2.15l-.58-1,0,0-.05-.14-.1-.28-.2-.57a94,94,0,0,0-3.7-10,24,24,0,0,0-1.24-2.49l-1.34-2.45c-1-1.58-2.06-3.09-3.09-4.64s-2.37-2.92-3.55-4.38a26,26,0,0,0-1.84-2l-1.86-1.91-1.88-1.89-.91-.91-.77-.87a36.35,36.35,0,0,1-2.84-4.05c-1.77-2.91-3.36-6-5-9.17a56.4,56.4,0,0,0-5.71-9.32,15.11,15.11,0,0,0-2.14-2.18,8,8,0,0,0-3.15-1.68,6,6,0,0,0-2.17-.13,4.45,4.45,0,0,0-.55.08l-.3.08-.31.08-.28.09L195,161l-1.35.58-1.27.73c-3.35,2.12-5.47,5.24-7.22,7.88a29.81,29.81,0,0,1-2.66,3.55l-.69.7-.63.52c-.23.19-.63.39-.94.59l-.1.06h0l-.24.11-.48.22a42.25,42.25,0,0,1-8,2.62c-2.71.66-5.41,1.16-8,1.69a54.74,54.74,0,0,0-7.54,1.93,16.94,16.94,0,0,0-1.8.76c-.3.15-.61.3-.88.46l-.73.48-.17.12-.09.05-.11.08,0,0-.34.27L151,185l-1.3,1.07a30.68,30.68,0,0,0-7.29,8.85,14.77,14.77,0,0,0-1.87,7.13,9.54,9.54,0,0,0,.23,1.93,4.3,4.3,0,0,0,.19.63,7.12,7.12,0,0,1-.13-2.55,14.71,14.71,0,0,1,2.49-6.6,30.72,30.72,0,0,1,7.64-7.77c.85-.58,1.81-1.31,2.64-1.81l.76-.42c.25-.11.47-.18.71-.27a12.63,12.63,0,0,1,1.54-.51,55.4,55.4,0,0,1,7.27-1.36c5.2-.76,11.05-1.23,17.11-3.66l.57-.24.28-.12.07,0,.18-.1.13-.07c.35-.2.65-.32,1.05-.58s.85-.59,1.21-.89.69-.6,1-.92a32.78,32.78,0,0,0,3.24-3.94c1.91-2.6,3.71-5,6.08-6.39l.9-.48,1-.38c-.23,0,.89-.27.72-.16a2.1,2.1,0,0,0,.32.07,6.42,6.42,0,0,1,2.64,2.29,62.08,62.08,0,0,1,5,8.59c1.61,3.1,3.19,6.33,5.1,9.52a40.91,40.91,0,0,0,3.25,4.71c.32.38.65.76,1,1.13l1,1,1.86,1.91,1.87,1.9a19.45,19.45,0,0,1,1.77,1.91c1.06,1.3,2.16,2.57,3.2,3.88s1.94,2.78,2.85,4.19l1.22,2.19a20.34,20.34,0,0,1,1.14,2.23c1.48,3,2.39,6.17,3.73,9.59l.25.65.13.32.06.16,0,.08c.05.12-.07-.15.13.28l.67,1.1c.46.73.87,1.45,1.41,2.19l3,4.35C243,235,246.89,240.17,250.63,245s7.32,9.42,10.64,13.61,6.37,8,9.1,11.42Zm0,0h0S270.45,270.15,270.49,270.21Zm-144.21-57,1.12-.35c.72-.24,1.8-.53,3.15-.93s3-.83,4.91-1.36,4-1.06,6.39-1.59,4.89-1.08,7.57-1.65c1.33-.31,2.73-.54,4.15-.78s2.85-.53,4.33-.78c3-.39,6-.93,9.1-1.21l4.69-.51c1.57-.2,3.16-.21,4.74-.32s3.16-.24,4.74-.3l4.71-.06,2.33,0a17.65,17.65,0,0,1,2.3,0l4.52.16c3,.05,5.84.36,8.57.6l4,.35,3.69.56,3.41.51c1.08.16,2.14.23,3.09.45,1.9.44,3.58.76,5,1,2.78.56,4.4.82,4.4.82s-1.46-.71-4.08-1.84c-1.31-.57-2.91-1.27-4.77-2s-4-1.3-6.39-2l-3.69-1.08-4-.78-4.27-.81-1.1-.21-1.13-.11-2.27-.22a83.7,83.7,0,0,0-9.49-.63l-4.89,0c-1.63,0-3.27.17-4.92.26s-3.28.17-4.91.39l-4.84.64c-.8.12-1.6.2-2.39.34l-2.34.47-4.59.93c-3,.74-5.88,1.46-8.56,2.32-1.34.44-2.65.83-3.91,1.26s-2.44.92-3.59,1.35c-2.3.82-4.35,1.79-6.17,2.59s-3.37,1.63-4.63,2.31c-2.53,1.36-3.88,2.29-3.88,2.29Zm117.4,31.44a30.22,30.22,0,0,1-6.37,2.3c-5.65,1.54-13.92,3-23.87,4.64l-16.08,2.65c-5.71,1-11.74,2-18,3.27l-4.7,1-1.18.26-1.23.3-2.36.58c-1.58.41-3.16.74-4.77,1.21l-4.86,1.5a102.18,102.18,0,0,0-19,8.2l-1.17.77a9.34,9.34,0,0,0-1.29,1c-.26.23-.51.47-.76.71l-.18.18-.26.39,0,.07a3.06,3.06,0,0,0-.18.34,6.76,6.76,0,0,0-.3.83l-.1.43,0,.27a6.11,6.11,0,0,0-.06,1,11.26,11.26,0,0,0,.53,3.28,16.92,16.92,0,0,0,1.1,2.81,20.7,20.7,0,0,0,3.27,4.79,22.86,22.86,0,0,0,2.08,2c.35.32.75.58,1.12.87l.29.22.14.1.3.19.07,0,.55.29a8.37,8.37,0,0,0,1.53.63,9.08,9.08,0,0,0,1.58.38,10.44,10.44,0,0,0,1.38.2c.46.06.9.1,1.3.13.85.07,1.63.11,2.36.2.33.05.72.08,1,.14l.45.11.22.05.09,0a8.29,8.29,0,0,1,1,.44,3.57,3.57,0,0,0,.44.34c.2.21.42.38.62.6s.4.46.56.71.32.51.46.77l-.5,0c-.67,0-1.41,0-2.15,0l-4.58-.26a46.41,46.41,0,0,0-4.72,0c-.78,0-1.68.14-2.38.25l-2.15.32c-2.84.41-5.6.76-8.2.92a20.33,20.33,0,0,1-3.68,0,4.78,4.78,0,0,1-1.37-.34,1.3,1.3,0,0,1-.46-.33,5.25,5.25,0,0,1-.62-.59,6.16,6.16,0,0,1-1.4-2.62,27.7,27.7,0,0,0-1.06-3.59,11.28,11.28,0,0,0-2-3.21,18.63,18.63,0,0,0-2.53-2.27,71.17,71.17,0,0,0-9.27-5.55c-2.59-1.4-4.66-2.47-5.73-3.61a1.7,1.7,0,0,1-.59-1.57,1.93,1.93,0,0,1,.26-.56,1.74,1.74,0,0,0-.33.54,1.89,1.89,0,0,0,.44,1.77c1,1.34,3,2.72,5.41,4.36a81.72,81.72,0,0,1,8.52,6.23,10.86,10.86,0,0,1,3.46,4.8c.31,1,.46,2.06.73,3.37a9.09,9.09,0,0,0,1.91,4,7.55,7.55,0,0,0,.72.79l.17.17.09.09,0,0,.13.11c.2.15.41.3.63.44a7.57,7.57,0,0,0,2.35.81,22.81,22.81,0,0,0,4.32.35c2.83,0,5.67-.26,8.57-.53l2.19-.21a17.86,17.86,0,0,1,2-.13c1.36,0,2.8.09,4.28.22s3,.32,4.59.43c.81.06,1.63.11,2.51.11a11.66,11.66,0,0,0,1.41-.07,6.05,6.05,0,0,0,1.76-.42,2.44,2.44,0,0,0,.56-.28,3.59,3.59,0,0,0,.62-.44,3.41,3.41,0,0,0,1.07-1.84l0-.15,0-.07a3.32,3.32,0,0,0,0-.4l0-.64a4.86,4.86,0,0,0-.08-.6l-.12-.43a10.92,10.92,0,0,0-1.33-2.9c-.28-.43-.61-.82-.91-1.23s-.73-.75-1.1-1.12a13.79,13.79,0,0,0-1.52-1.1c-.47-.26-.77-.36-1.16-.56l-.07,0-.32-.12-.18-.05-.37-.1-.73-.19c-.49-.12-.92-.16-1.39-.24-.88-.13-1.75-.2-2.53-.28l-1.16-.13a9.71,9.71,0,0,1-1.05-.16,5,5,0,0,1-.83-.2,1.91,1.91,0,0,1-.77-.3l-.51-.28,0,0L148,286c-.28-.23-.58-.42-.85-.67a18.41,18.41,0,0,1-1.55-1.51,15.52,15.52,0,0,1-2.41-3.58,9.93,9.93,0,0,1-1-3.71.41.41,0,0,1,0-.12l.1-.06c0-.06.5-.34.77-.53l1-.62a97.53,97.53,0,0,1,17.85-7.86l4.59-1.48c1.53-.5,3.14-.89,4.7-1.34l2.34-.64,1.11-.31,1.16-.29,4.61-1.1,17.72-4c5.66-1.21,11-2.42,15.93-3.57,9.86-2.29,18.05-4.51,23.61-6.66a27.57,27.57,0,0,0,6.2-3.08,7.12,7.12,0,0,0,1.37-1.22l.37-.51-.42.46a7.3,7.3,0,0,1-1.47,1Zm-84,52h0s0,0,0,0Zm-17.65-20.09s0,0,0-.07h0S142.08,276.54,142.06,276.56Zm151.69,11.51c-1.12-5.83-3.63-11.29-5.8-17.2-1.11-2.94-2.18-6-3.12-9.08s-1.72-6.35-2.68-9.75a154.5,154.5,0,0,0-5.66-17.13c0-.22-.05-.45-.07-.7-.23-2.33-.62-5.64-1.34-9.54-.33-2-.69-4.07-1.13-6.3-.23-1.11-.46-2.26-.69-3.43-.12-.58-.24-1.17-.37-1.76l-.09-.45c-.05-.22-.1-.33-.14-.5l-.29-.95a31.38,31.38,0,0,0-3.16-7.53c-.72-1.16-1.42-2.39-2.2-3.44l-2.23-3.2c-.76-1-1.4-2.09-2-3.14-.3-.53-.68-1-.93-1.57l-.78-1.58c-.27-.52-.54-1-.8-1.56s-.46-1.19-.69-1.77c-.45-1.15-.89-2.28-1.32-3.4a69.61,69.61,0,0,0-2.78-6.77c-.51-1-1-2.08-1.49-3s-1.06-1.86-1.57-2.73c-1-1.75-2.06-3.25-3-4.59s-1.81-2.44-2.57-3.33-1.36-1.57-1.78-2-.67-.68-.67-.68l.42.86c.28.56.65,1.38,1.14,2.43s1,2.34,1.7,3.77c.32.73.62,1.53,1,2.35s.73,1.67,1,2.59.69,1.86,1.06,2.84.67,2,1,3.06c.78,2.07,1.28,4.35,2,6.63l1.15,3.71c.2.61.36,1.21.59,1.83s.57,1.29.86,1.93a27.13,27.13,0,0,0,1.9,3.77c.7,1.2,1.41,2.4,2.19,3.48l2.29,3.22c.78,1.06,1.42,2.06,2.1,3.08l.5.75.4.79.84,1.54a9.07,9.07,0,0,1,.71,1.59l.63,1.6.32.8c0,.12.12.29.14.36l.13.44.54,1.72c.36,1.13.71,2.24,1.06,3.32.41,1.29.83,2.52,1.24,3.71-1.88-3.88-3.86-7.73-5.94-11.52-1.9-3.2-3.76-6.46-5.71-9.54l-1.45-2.32-1.42-2.34c-.92-1.54-1.83-3.07-2.75-4.59-3.44-6.25-6.79-12.47-9.58-18.72S239,161.75,236.85,156c-.57-1.43-1-3-1.53-4.41-.24-.73-.48-1.45-.71-2.17s-.52-1.48-.79-2.2a49.08,49.08,0,0,0-3.94-8,27.82,27.82,0,0,0-5.24-6.4,14.6,14.6,0,0,0-1.55-1.25,12.56,12.56,0,0,0-1.6-1l-.76-.43c-.37-.19-.58-.25-.87-.38l-1.6-.68-1.55-.65c-.52-.18-1-.32-1.54-.48-1-.3-2-.62-2.92-.85-1.91-.38-3.64-.81-5.23-1l-2.25-.31-2-.15c-1.23-.12-2.29-.12-3.14-.16-1.71,0-2.61,0-2.61,0s.91.07,2.59.29a70.53,70.53,0,0,1,7.21,1.39c1.55.31,3.2.89,5,1.43.89.31,1.79.7,2.75,1.05l1.43.57,1.42.74,1.46.75.69.36.74.49a9.8,9.8,0,0,1,1.34,1,13.39,13.39,0,0,1,1.25,1.17,26.64,26.64,0,0,1,4.36,6.07,45.64,45.64,0,0,1,3.22,7.65l.63,2.08c.2.73.41,1.47.62,2.21.44,1.48.82,3,1.36,4.51,2,6.19,4.35,12.44,7.11,18.86l2.11,4.82,2.29,4.84c.38.81.77,1.62,1.16,2.44l1.25,2.41c.85,1.61,1.69,3.23,2.58,4.84l2.81,4.78,1.4,2.36,1.43,2.34c1.95,3.12,3.7,6.26,5.52,9.41a210.77,210.77,0,0,1,9.69,19.37,181.88,181.88,0,0,1,7.2,19.7c1,3.23,1.86,6.57,3,9.82s2.35,6.27,3.6,9.21,2.49,5.72,3.67,8.45a49.66,49.66,0,0,1,2.82,7.83c.59,2.5.52,4.8-.89,6.13a7,7,0,0,1-2.66,1.54,18,18,0,0,1-3.16.79,34.71,34.71,0,0,1-6,.73,9.37,9.37,0,0,1-4.8-.91,6.61,6.61,0,0,1-2.64-2.94,21.83,21.83,0,0,1-1.17-2.92c-.56-1.64-.87-2.51-.87-2.51s.21.9.59,2.59a24,24,0,0,0,.87,3.11,7.25,7.25,0,0,0,2.67,3.59,10.64,10.64,0,0,0,5.3,1.56,33.51,33.51,0,0,0,6.34-.25,20.13,20.13,0,0,0,3.53-.61,9.19,9.19,0,0,0,3.71-1.83,6.8,6.8,0,0,0,2.26-4.12,13.43,13.43,0,0,0-.09-4.57Z" fill="#e9f6ff"/></g></g></svg>