<svg xmlns="http://www.w3.org/2000/svg" viewBox="0 0 232 348.08"><g id="Layer_2" data-name="Layer 2"><g id="Layer_7" data-name="Layer 7"><rect width="232" height="348.08" rx="14.77" fill="#ebf2ed"/><rect y="0.08" width="232" height="35" rx="9.06" fill="#5a5a5a"/><rect y="315.08" width="232" height="33" rx="9.06" fill="#5a5a5a"/><path d="M30.86,8.08a2,2,0,0,0-1.47.68l-9.28,9.88-4.05-3.46a2,2,0,0,0-3,.43,2.52,2.52,0,0,0,.38,3.28l5.5,4.7a2,2,0,0,0,2.77-.16L32.33,12.15a2.54,2.54,0,0,0,.1-3.32A2.07,2.07,0,0,0,30.86,8.08Z" fill="#29abe2"/><path d="M120.84,22.26h-7.19v1.82h7.19c3.39,0,6.16-3,6.16-6.8s-2.77-6.8-6.16-6.8h-5.29l1.24-1.37-1.15-1.32-3.23,3.56,3.23,3.56,1.15-1.28-1.24-1.37h5.25a4.78,4.78,0,0,1,4.51,5A4.84,4.84,0,0,1,120.84,22.26Z" fill="#a8ab61"/><path d="M136.11,17.24a4.77,4.77,0,0,1,4.5-5h5.25l-1.24,1.37,1.16,1.28L149,11.35l-3.22-3.56-1.16,1.32,1.24,1.37h-5.29c-3.39,0-6.16,3.06-6.16,6.8s2.77,6.8,6.16,6.8h7.19V22.26h-7.19A4.83,4.83,0,0,1,136.11,17.24Z" fill="#a8ab61"/><path d="M157.85,327.4h13.64a.68.68,0,0,0,0-1.32H157.85a.68.68,0,0,0,0,1.32Z" fill="#a8ab61"/><path d="M157.85,331.62h9.52a.68.68,0,0,0,0-1.31h-9.52a.68.68,0,0,0,0,1.31Z" fill="#a8ab61"/><path d="M171.49,334.55H157.85a.59.59,0,0,0-.51.65.6.6,0,0,0,.51.66h13.64a.6.6,0,0,0,.51-.66A.59.59,0,0,0,171.49,334.55Z" fill="#a8ab61"/><path d="M167.37,338.77h-9.52a.6.6,0,0,0-.51.66.59.59,0,0,0,.51.65h9.52a.59.59,0,0,0,.51-.65A.6.6,0,0,0,167.37,338.77Z" fill="#a8ab61"/><path d="M164.42,7.92a1.24,1.24,0,0,0-1.26,1.2v6.69H156.1a1.2,1.2,0,1,0,0,2.39h7.06v6.69a1.26,1.26,0,0,0,2.52,0V18.2h7.06a1.2,1.2,0,1,0,0-2.39h-7.06V9.12A1.23,1.23,0,0,0,164.42,7.92Z" fill="#a8ab61"/><path d="M201,9.08H186a2.09,2.09,0,0,0-2,2.13v9.92a2.08,2.08,0,0,0,2,2.13h1.35v2.13a.71.71,0,0,0,.38.63.64.64,0,0,0,.68-.07l3.39-2.69H201a2.08,2.08,0,0,0,2-2.13V11.21A2.09,2.09,0,0,0,201,9.08Zm.68,12a.69.69,0,0,1-.68.71h-9.35a.66.66,0,0,0-.42.15l-2.44,2V22.55a.69.69,0,0,0-.68-.71h-2a.69.69,0,0,1-.68-.71V11.21a.69.69,0,0,1,.68-.71H201a.69.69,0,0,1,.68.71Zm-12.89-7.08h9.5v1.41h-9.5Zm0,2.83h9.5V18.3h-9.5Z" fill="#a8ab61"/><path d="M220.22,7.81a2.23,2.23,0,1,0,0,3A1.84,1.84,0,0,0,220.22,7.81Z" fill="#a8ab61"/><path d="M220.22,16.33c-1.29-1.25-3.88-.25-3.88,1.5a2.38,2.38,0,0,0,3.88,1.76A2.09,2.09,0,0,0,220.22,16.33Z" fill="#a8ab61"/><path d="M220.22,24.35a2.23,2.23,0,1,0,0,3A1.84,1.84,0,0,0,220.22,24.35Z" fill="#a8ab61"/><path d="M15.81,326.7v-.65h2.26v.89h-.16Zm2.26,9.17v.89H15.81v-.65l2.1-.24ZM17.32,331c0-1.65,0-3.32-.05-5h1.6c0,1.62,0,3.28,0,5v.55c0,1.88,0,3.54,0,5.19h-1.6c.05-1.61.05-3.28.05-5Zm.75-.16h1.6c1.93,0,2.77-.63,2.77-2.09s-.84-2-2.46-2H18.07v-.75h2.39c2.22,0,3.48,1.09,3.48,2.62,0,1.24-.85,2.34-3,2.6v-.14c2.52.2,3.55,1.32,3.55,2.7s-1.19,2.93-4.27,2.93H18.07V336h1.77c2,0,3-.78,3-2.19s-1-2.23-3.16-2.23H18.07Z" fill="#a8ab61"/><path d="M41.89,335.71h2.57l1.7-8.39H43.54l.22-1.06h6.52l-.23,1.06H47.41l-1.68,8.39h2.64l-.22,1.05h-6.5Z" fill="#a8ab61"/><path d="M67.73,326.7v-.65h4.53v.65l-2.1.24h-.33Zm5.52,9.17c1.81,0,2.74-1,2.74-3.88v-5.94h.81v6.33c0,3.37-1.63,4.63-3.81,4.63s-3.9-1.29-3.9-4.28V331c0-1.64,0-3.3,0-4.95h1.6c0,1.62,0,3.28,0,4.95v1.27C70.6,335,71.62,335.87,73.25,335.87Zm2.86-8.93-1.76-.24v-.65h3.84v.65l-1.75.24Z" fill="#a8ab61"/><path d="M96.19,336.11l1.6-.24h.32l1.75.24v.65H96.19ZM100.94,326h1l3.68,10.79h-1.56l-3.19-9.53.38,0L98,336.76h-.76Zm-1.86,6.57h4.32l.26.74H98.82Zm3.13,3.57,2-.24h.37l2,.24v.65h-4.35Z" fill="#a8ab61"/><line x1="69" y1="339.58" x2="76" y2="339.58" fill="none" stroke="#999" stroke-miterlimit="10"/><line x1="97" y1="339.58" x2="104" y2="339.58" fill="none" stroke="#999" stroke-miterlimit="10"/><path d="M141,328.64a.76.76,0,0,0-.24-.61l-2.85-2.71a.82.82,0,0,0-.65-.23.85.85,0,0,0-.61.31l-4.09,5.19a5.29,5.29,0,0,0-4.38,1.51,4.63,4.63,0,0,0-1.5,4.61l-2,1.41a.77.77,0,0,0-.16,1.11.81.81,0,0,0,.4.28,8.38,8.38,0,0,0,8.31-1.87l.38-.36a4.77,4.77,0,0,0,1.59-4.17l5.45-3.89A.81.81,0,0,0,141,328.64Zm-8.55,7.52-.37.36a6.68,6.68,0,0,1-4.87,1.8l1-.72a.76.76,0,0,0,.21-1c-.55-.88-.15-2.31.93-3.34,1.23-1.17,3-1.48,3.81-.68h0C134,333.34,133.68,335,132.45,336.16Z" fill="#a8ab61"/><path d="M196.71,333.94v-1.71H209v1.71Zm0,6.86v-1.72H209v1.72Zm0-13.72v-1.71H209v1.71Zm-3.07,7.15v-2.29h1.64v2.29Zm0,6.85V338.8h1.64v2.28Zm0-13.71v-2.29h1.64v2.29Z" fill="#a8ab61"/></g></g></svg>