<svg xmlns="http://www.w3.org/2000/svg" viewBox="0 0 1818.19 1232.76"><g id="Layer_2" data-name="Layer 2"><g id="Layer_23" data-name="Layer 23"><g id="Layer_24" data-name="Layer 24"><path d="M1318.74,3a1.5,1.5,0,0,0,0-3,1.5,1.5,0,0,0,0,3Z"/><polygon points="644 490.28 334.11 727.12 140.11 469.12 450 232.28 644 490.28" fill="#662d91" stroke="#000" stroke-miterlimit="10" stroke-width="6"/><polygon points="552.22 482.51 406.22 594.1 292.31 442.61 438.31 331.03 552.22 482.51" fill="#f0f"/><rect x="283.68" y="657.65" width="93.23" height="88.37" fill="#9e005d"/><rect x="92.44" y="483.32" width="93.23" height="88.37" fill="#9e005d"/><rect x="174.51" y="607.84" width="67.73" height="75.52" fill="#9e005d"/><rect x="107.58" y="656.04" width="48.61" height="44.18" fill="#d4145a"/><rect x="27.89" y="541.96" width="48.61" height="44.18" fill="#662d91"/><rect x="72.51" y="722.72" width="48.61" height="44.18" fill="#662d91"/><rect x="189.07" y="806.58" width="48.61" height="44.18" fill="#662d91"/><rect y="611.86" width="33.47" height="33.74" fill="#d4145a"/><rect x="247.82" y="746.02" width="33.47" height="33.74" fill="#d4145a"/><polygon points="1814 872.28 1504.11 1109.12 1310.11 851.12 1620 614.28 1814 872.28" fill="#662d91" stroke="#000" stroke-miterlimit="10" stroke-width="6"/><polygon points="1722.22 864.51 1576.22 976.1 1462.31 824.61 1608.31 713.03 1722.22 864.51" fill="#f0f"/><rect x="1453.68" y="1039.65" width="93.23" height="88.37" fill="#9e005d"/><rect x="1262.44" y="865.32" width="93.23" height="88.37" fill="#9e005d"/><rect x="1344.51" y="989.84" width="67.73" height="75.52" fill="#9e005d"/><rect x="1277.58" y="1038.04" width="48.61" height="44.18" fill="#d4145a"/><rect x="1197.89" y="923.96" width="48.61" height="44.18" fill="#662d91"/><rect x="1242.51" y="1104.72" width="48.61" height="44.18" fill="#662d91"/><rect x="1359.07" y="1188.58" width="48.61" height="44.18" fill="#662d91"/><rect x="1170" y="993.86" width="33.47" height="33.74" fill="#d4145a"/><rect x="1417.82" y="1128.02" width="33.47" height="33.74" fill="#d4145a"/></g></g></g></svg>