<svg xmlns="http://www.w3.org/2000/svg" viewBox="0 0 1818.19 1222.7"><g id="Layer_2" data-name="Layer 2"><g id="Layer_23" data-name="Layer 23"><g id="Layer_24" data-name="Layer 24"><polygon points="644 262.22 334.11 499.06 140.11 241.06 450 4.22 644 262.22" fill="#662d91" stroke="#000" stroke-miterlimit="10" stroke-width="6"/><polygon points="552.22 254.45 406.22 366.04 292.31 214.55 438.31 102.96 552.22 254.45" fill="#f0f"/><rect x="283.68" y="429.58" width="93.23" height="88.37" fill="#9e005d"/><rect x="92.44" y="255.25" width="93.23" height="88.37" fill="#9e005d"/><rect x="174.51" y="379.77" width="67.73" height="75.52" fill="#9e005d"/><rect x="107.58" y="427.98" width="48.61" height="44.18" fill="#d4145a"/><rect x="27.89" y="313.9" width="48.61" height="44.18" fill="#662d91"/><rect x="72.51" y="494.66" width="48.61" height="44.18" fill="#662d91"/><rect x="189.07" y="578.51" width="48.61" height="44.18" fill="#662d91"/><rect y="383.79" width="33.47" height="33.74" fill="#d4145a"/><rect x="247.82" y="517.95" width="33.47" height="33.74" fill="#d4145a"/><polygon points="774 862.22 464.11 1099.06 270.11 841.06 580 604.22 774 862.22" fill="#662d91" stroke="#000" stroke-miterlimit="10" stroke-width="6"/><polygon points="682.22 854.45 536.22 966.04 422.31 814.55 568.31 702.96 682.22 854.45" fill="#f0f"/><rect x="413.68" y="1029.58" width="93.23" height="88.37" fill="#9e005d"/><rect x="222.44" y="855.25" width="93.23" height="88.37" fill="#9e005d"/><rect x="304.51" y="979.77" width="67.73" height="75.52" fill="#9e005d"/><rect x="237.58" y="1027.98" width="48.61" height="44.18" fill="#d4145a"/><rect x="157.89" y="913.9" width="48.61" height="44.18" fill="#662d91"/><rect x="202.51" y="1094.66" width="48.61" height="44.18" fill="#662d91"/><rect x="319.07" y="1178.51" width="48.61" height="44.18" fill="#662d91"/><rect x="130" y="983.79" width="33.47" height="33.74" fill="#d4145a"/><rect x="377.82" y="1117.95" width="33.47" height="33.74" fill="#d4145a"/><polygon points="1814 644.22 1504.11 881.06 1310.11 623.06 1620 386.22 1814 644.22" fill="#662d91" stroke="#000" stroke-miterlimit="10" stroke-width="6"/><polygon points="1722.22 636.45 1576.22 748.04 1462.31 596.55 1608.31 484.96 1722.22 636.45" fill="#f0f"/><rect x="1453.68" y="811.58" width="93.23" height="88.37" fill="#9e005d"/><rect x="1262.44" y="637.25" width="93.23" height="88.37" fill="#9e005d"/><rect x="1344.51" y="761.77" width="67.73" height="75.52" fill="#9e005d"/><rect x="1277.58" y="809.98" width="48.61" height="44.18" fill="#d4145a"/><rect x="1197.89" y="695.9" width="48.61" height="44.18" fill="#662d91"/><rect x="1242.51" y="876.66" width="48.61" height="44.18" fill="#662d91"/><rect x="1359.07" y="960.51" width="48.61" height="44.18" fill="#662d91"/><rect x="1170" y="765.79" width="33.47" height="33.74" fill="#d4145a"/><rect x="1417.82" y="899.95" width="33.47" height="33.74" fill="#d4145a"/></g></g></g></svg>