<svg xmlns="http://www.w3.org/2000/svg" viewBox="0 0 365 394"><g id="Layer_2" data-name="Layer 2"><g id="Layer_18" data-name="Layer 18"><rect x="3.5" y="3.5" width="358" height="387" rx="30.29" fill="#ccc" stroke="#000" stroke-miterlimit="10" stroke-width="7"/><rect x="42.5" y="36.5" width="279" height="321" rx="30.29" fill="#ff0e00" stroke="#000" stroke-miterlimit="10" stroke-width="7"/><path d="M258.78,141.05a41.77,41.77,0,0,0-20.16,5.2L165.54,71.92a3.8,3.8,0,0,0-5.43,0L96.73,136.38l-3.07-15.62h0a3.9,3.9,0,0,0-2.55-2.94l-11.51-3.9a3.81,3.81,0,0,0-4.65,2l-3.84,7.8a4,4,0,0,0,0,3.5L78.38,142v5.26l-6.55,6.67a3.94,3.94,0,0,0-.72,4.5l3.43,7v10.79a4,4,0,0,0,1.13,2.76l5,5H74.54a3.87,3.87,0,0,0-3.83,3.91v19.52c0,41.22,30.08,75.44,69.08,81.14V301.1a4,4,0,0,0,1.13,2.76,3.8,3.8,0,0,0,2.71,1.14h84.44a3.82,3.82,0,0,0,2.72-1.14,4,4,0,0,0,1.12-2.76V288.55c39-5.7,69.09-39.92,69.09-81.14V184a43.38,43.38,0,0,0-12.38-30.35A41.94,41.94,0,0,0,258.78,141ZM270.29,184a11.84,11.84,0,0,0-3.46-8.38,11.38,11.38,0,0,0-16.46.38,43.8,43.8,0,0,0-2.37-8.16,19,19,0,0,1,25.18,3.25A19.76,19.76,0,0,1,278,184Zm-15.35,0a3.84,3.84,0,1,1,7.67,0Zm-11.52,0h-7.67a27.6,27.6,0,0,0-8.47-19.93,26.56,26.56,0,0,0-39.1,2.52,81.34,81.34,0,0,0-2.25-8.85,34.13,34.13,0,0,1,47.85,1.9A35.47,35.47,0,0,1,243.42,184ZM205,184a3.84,3.84,0,1,1,7.68,0Zm3.84-11.71a11.41,11.41,0,0,0-8.14,3.43,11.84,11.84,0,0,0-3.38,8.28h-7.67a19.6,19.6,0,0,1,9.59-16.91,19,19,0,0,1,19.2,0A19.6,19.6,0,0,1,228.07,184h-7.68a11.79,11.79,0,0,0-3.37-8.28,11.41,11.41,0,0,0-8.14-3.43ZM143.63,184a11.75,11.75,0,0,1,5.76-10.15,11.35,11.35,0,0,1,11.51,0A11.77,11.77,0,0,1,166.66,184Zm11.51-19.52a19,19,0,0,0-13.56,5.72A19.73,19.73,0,0,0,136,184h-7.67v-1.78a73.16,73.16,0,0,1,4.53-25.42,24.06,24.06,0,0,1,13-13.79,23.43,23.43,0,0,1,18.75,0,24.1,24.1,0,0,1,13,13.79A73.16,73.16,0,0,1,182,182.21V184h-7.67a19.73,19.73,0,0,0-5.63-13.8A19,19,0,0,0,155.14,164.47Zm7.68-84.27,36.79,37.42h-6.08v7.81h7.67v-6.19L226.5,145h0a41.65,41.65,0,0,0-43.59,5.16,31.62,31.62,0,0,0-18-15.31,31,31,0,0,0-23.43,1.6A31.91,31.91,0,0,0,125.62,154a81.37,81.37,0,0,0-4.25,17l-4.61-1.56v-5a3.9,3.9,0,0,0-2.12-3.49l-5.55-2.83v-5.39a4,4,0,0,0-.65-2.17l-5.93-9.05Zm-82.5,42.2,6.25,2.11,2.48,12.63H84.59l-5.76-11.71Zm1.9,52.16v-10.1a3.9,3.9,0,0,0-.41-1.74l-2.6-5.29,5.72-5.82a3.92,3.92,0,0,0,1.12-2.76V145h9.46l5.9,9v6.62a3.9,3.9,0,0,0,2.12,3.49l5.55,2.83v5.39a3.92,3.92,0,0,0,2.63,3.71l9,3c0,1.06-.06,2.13-.06,3.19V184H91.48Zm142,122.63H147.47v-7.9c1.27.06,2.55.1,3.83.1h69.09c1.29,0,2.57,0,3.84-.1Zm69.09-89.78c0,40.9-32.71,74.17-72.93,74.17H151.3c-40.21,0-72.92-33.27-72.92-74.17V191.79H293.32ZM285.64,184a27.61,27.61,0,0,0-6.51-17.84,26.56,26.56,0,0,0-34.69-5.28,43.12,43.12,0,0,0-4.73-6.19,34.13,34.13,0,0,1,45.07,6.18A35.45,35.45,0,0,1,293.32,184Z" fill="#ffd4e4"/><path d="M159,94.2h7.68V102H159Z" fill="#ffd4e4"/><path d="M143.63,113.72h7.68v7.81h-7.68Z" fill="#ffd4e4"/><path d="M174.34,105.91H182v7.81h-7.67Z" fill="#ffd4e4"/><path d="M182,133.24h7.68v7.81H182Z" fill="#ffd4e4"/><path d="M112.92,137.14h7.68V145h-7.68Z" fill="#ffd4e4"/><path d="M132.12,129.33h7.67v7.81h-7.67Z" fill="#ffd4e4"/><path d="M162.82,121.53h7.68v7.8h-7.68Z" fill="#ffd4e4"/></g></g></svg>