<svg xmlns="http://www.w3.org/2000/svg" viewBox="0 0 691 177"><g id="Layer_2" data-name="Layer 2"><g id="Layer_1-2" data-name="Layer 1"><path d="M28.5.13h634A28.37,28.37,0,0,1,690.88,28.5v40A28.38,28.38,0,0,1,662.5,96.88H28.5A28.38,28.38,0,0,1,.13,68.51v-40A28.37,28.37,0,0,1,28.5.13Z" fill="#fff"/><path d="M662.5.25A28.28,28.28,0,0,1,690.75,28.5v40A28.28,28.28,0,0,1,662.5,96.76H28.5A28.28,28.28,0,0,1,.25,68.51v-40A28.28,28.28,0,0,1,28.5.25h634m0-.25H28.5A28.5,28.5,0,0,0,0,28.5v40A28.5,28.5,0,0,0,28.5,97h634A28.5,28.5,0,0,0,691,68.51v-40A28.5,28.5,0,0,0,662.5,0Z" fill="#999"/><rect x="250.28" y="115.86" width="188.68" height="61.02" fill="#f2f2f2"/><path d="M438.84,116v60.77H250.41V116H438.84m.25-.25H250.16V177H439.09V115.73Z" fill="#999"/><path d="M48.11,64.38c-11,0-19.87-8.65-19.87-19.28s8.91-19.27,19.87-19.27S68,34.47,68,45.1,59.06,64.38,48.11,64.38Z" fill="#fff"/><path d="M48.11,27.83C58,27.83,66,35.58,66,45.1S58,62.38,48.11,62.38,30.24,54.63,30.24,45.1s8-17.27,17.87-17.27m0-4C36,23.83,26.24,33.35,26.24,45.1S36,66.38,48.11,66.38,70,56.85,70,45.1,60.18,23.83,48.11,23.83Z"/><line x1="57.73" y1="57.87" x2="75.22" y2="81.69" fill="none" stroke="#000" stroke-miterlimit="10" stroke-width="4"/></g></g></svg>