<svg xmlns="http://www.w3.org/2000/svg" viewBox="0 0 824 577.5"><g id="Layer_2" data-name="Layer 2"><g id="Layer_1-2" data-name="Layer 1"><rect x="246.29" y="232.88" width="188.68" height="61.02" fill="#f2f2f2"/><path d="M434.85,233v60.77H246.41V233H434.85m.25-.25H246.16V294H435.1V232.76Z" fill="#999"/><path d="M44.11,181.4c-11,0-19.86-8.64-19.86-19.27s8.91-19.27,19.86-19.27S64,151.5,64,162.13,55.07,181.4,44.11,181.4Z" fill="#fff"/><path d="M44.11,144.86C54,144.86,62,152.61,62,162.13S54,179.4,44.11,179.4s-17.86-7.75-17.86-17.27,8-17.27,17.86-17.27m0-4c-12.07,0-21.86,9.52-21.86,21.27S32,183.4,44.11,183.4,66,173.88,66,162.13s-9.79-21.27-21.87-21.27Z"/><line x1="53.73" y1="174.89" x2="71.23" y2="198.72" fill="none" stroke="#000" stroke-miterlimit="10" stroke-width="4"/></g><g id="Layer_2-2" data-name="Layer 2"><rect width="823.5" height="577.5" rx="7.09" fill="#fff"/><path d="M149.29,46.9a13.88,13.88,0,1,1,0-27.75H696a13.88,13.88,0,1,1,0,27.75Z" fill="#fff"/><path d="M696,19.28a13.75,13.75,0,0,1,0,27.5H149.29a13.75,13.75,0,0,1,0-27.5H696m0-.25H149.29a14,14,0,0,0,0,28H696a14,14,0,0,0,0-28Z" fill="#999"/><path d="M153.21,37.19A6.58,6.58,0,1,1,160,30.61,6.69,6.69,0,0,1,153.21,37.19Z" fill="#fff"/><path d="M153.21,25a5.58,5.58,0,1,1-5.79,5.58A5.69,5.69,0,0,1,153.21,25m0-2A7.58,7.58,0,1,0,161,30.61,7.68,7.68,0,0,0,153.21,23Z"/><line x1="157.57" y1="35.73" x2="164.32" y2="42.61" fill="none" stroke="#000" stroke-miterlimit="10" stroke-width="2"/><path d="M159.21,90.19A6.58,6.58,0,1,1,166,83.61,6.69,6.69,0,0,1,159.21,90.19Z" fill="#fff"/><path d="M159.21,78a5.58,5.58,0,1,1-5.79,5.58A5.69,5.69,0,0,1,159.21,78m0-2A7.58,7.58,0,1,0,167,83.61,7.68,7.68,0,0,0,159.21,76Z"/><line x1="163.57" y1="88.73" x2="170.32" y2="95.61" fill="none" stroke="#000" stroke-miterlimit="10" stroke-width="2"/><path d="M249.5,85.64a3,3,0,1,1,3-3A3,3,0,0,1,249.5,85.64Zm0-4a1,1,0,1,0,1,1A1,1,0,0,0,249.5,81.64Zm0,14a1,1,0,0,1-.89-.55l-3.51-7a7,7,0,1,1,8.8,0l-3.5,7A1,1,0,0,1,249.5,95.64Zm0-18a5,5,0,0,0-3,9,1,1,0,0,1,.29.35l2.71,5.42L252.22,87a1,1,0,0,1,.29-.35,5,5,0,0,0-3-9Z"/><path d="M343.5,76h-10a4.51,4.51,0,0,0-4.5,4.5v10a4.51,4.51,0,0,0,4.5,4.5h10a4.5,4.5,0,0,0,4.5-4.5v-10A4.49,4.49,0,0,0,343.5,76Zm-10,1h10a3.5,3.5,0,0,1,3.5,3.5v8a3.86,3.86,0,0,1-2.07-1.06,3.28,3.28,0,0,0-2.18-1,4.67,4.67,0,0,0-2,.61,4.86,4.86,0,0,1-2.26.66c-.44,0-.58-.33-.8-1.41s-.56-2.8-2.65-2.46A9.85,9.85,0,0,0,330,86.91V80.53A3.5,3.5,0,0,1,333.5,77Zm10,17h-10a3.5,3.5,0,0,1-3.5-3.5V88.44c.47-.6,2.65-3.18,5.21-3.6,1-.17,1.24.32,1.51,1.67.19.93.46,2.21,1.78,2.21a5.84,5.84,0,0,0,2.7-.76,3.69,3.69,0,0,1,1.55-.51,2.42,2.42,0,0,1,1.54.8A4.82,4.82,0,0,0,347,89.57v1A3.5,3.5,0,0,1,343.5,94Zm-1.85-9.12a2.26,2.26,0,1,0-2.26-2.26A2.26,2.26,0,0,0,341.65,84.91Zm0-3.52a1.26,1.26,0,1,1-1.26,1.26A1.26,1.26,0,0,1,341.65,81.39Z"/><path d="M444.49,73.64H426.42a.53.53,0,0,0-.52.51V93.52a.53.53,0,0,0,.52.51h18.07a.53.53,0,0,0,.51-.51V74.15A.53.53,0,0,0,444.49,73.64Zm-15.44,4a.53.53,0,0,1,.52-.51H435a.53.53,0,0,1,.52.51v4.11a.53.53,0,0,1-.52.51h-5.47a.53.53,0,0,1-.52-.51Zm12.29,12.88H429.57a.51.51,0,1,1,0-1h11.77a.53.53,0,0,1,.52.51A.51.51,0,0,1,441.34,90.53Zm0-4.39H429.57a.51.51,0,1,1,0-1h11.77a.53.53,0,0,1,.52.51A.5.5,0,0,1,441.34,86.14Zm0-3.87h-2.77a.51.51,0,1,1,0-1h2.77a.53.53,0,0,1,.52.51A.51.51,0,0,1,441.34,82.27Zm0-4.11h-2.77a.51.51,0,1,1,0-1h2.77a.53.53,0,0,1,.52.51A.51.51,0,0,1,441.34,78.16Z" fill="#fff" stroke="#000" stroke-miterlimit="10"/><path d="M521.94,76.74h0s-.78,0-2.51.18a4.85,4.85,0,0,0-3.18,1.56l-7,7a1.54,1.54,0,0,0,0,2.16l5.63,5.62a1.52,1.52,0,0,0,2.16,0l7-7a4.85,4.85,0,0,0,1.56-3.2c.1-1.78.17-2.62.17-2.62v0a3.53,3.53,0,0,0-1-2.68A3.49,3.49,0,0,0,521.94,76.74Zm.07,1h0a2.5,2.5,0,0,1,2.74,2.63s-.08.86-.18,2.64a3.54,3.54,0,0,1-1.27,2.55l-7,7a.53.53,0,0,1-.75,0L509.92,87a.53.53,0,0,1,0-.75l7-7a3.6,3.6,0,0,1,2.56-1.27C521.25,77.77,522,77.74,522,77.74Zm.26,1a1.5,1.5,0,0,0-1.06.43,1.5,1.5,0,1,0,2.12,0A1.48,1.48,0,0,0,522.27,78.74Zm0,1a.51.51,0,0,1,.36.15.5.5,0,1,1-.71,0A.5.5,0,0,1,522.27,79.73Z"/><path d="M600.91,74.83a2.23,2.23,0,1,0,0,3A1.84,1.84,0,0,0,600.91,74.83Z" fill="#fff" stroke="#000" stroke-miterlimit="10"/><path d="M600.91,83.36c-1.29-1.26-3.88-.26-3.88,1.5a2.38,2.38,0,0,0,3.88,1.75A2.08,2.08,0,0,0,600.91,83.36Z" fill="#fff" stroke="#000" stroke-miterlimit="10"/><path d="M600.91,91.38a2.23,2.23,0,1,0,0,3A1.83,1.83,0,0,0,600.91,91.38Z" fill="#fff" stroke="#000" stroke-miterlimit="10"/><line x1="1" y1="108.03" x2="824" y2="109.03" fill="none" stroke="#999" stroke-miterlimit="10" stroke-width="0.5"/></g></g></svg>