<svg xmlns="http://www.w3.org/2000/svg" viewBox="0 0 220 28"><g id="Layer_2" data-name="Layer 2"><g id="Layer_8" data-name="Layer 8"><rect width="220" height="28" rx="10" fill="#fff"/><path d="M16.56,19.42a6.7,6.7,0,0,1-6.8-6.58,6.7,6.7,0,0,1,6.8-6.57,6.69,6.69,0,0,1,6.79,6.57A6.7,6.7,0,0,1,16.56,19.42Z" fill="#fff"/><path d="M16.56,7.27a5.69,5.69,0,0,1,5.79,5.57,5.69,5.69,0,0,1-5.79,5.58,5.7,5.7,0,0,1-5.8-5.58,5.69,5.69,0,0,1,5.8-5.57m0-2a7.69,7.69,0,0,0-7.8,7.57,7.69,7.69,0,0,0,7.8,7.58,7.69,7.69,0,0,0,7.79-7.58,7.68,7.68,0,0,0-7.79-7.57Z"/><line x1="20.91" y1="17.97" x2="27.66" y2="24.84" fill="none" stroke="#000" stroke-miterlimit="10" stroke-width="2"/><path d="M65.88,17h2V10.78h-2V9.93h4.91v.85h-2V17h2v.85H65.88Z"/><path d="M73.05,12h.82L74,13h0a3,3,0,0,1,2.19-1.12c1.38,0,2,.81,2,2.35V17.8h-1V14.31c0-1.1-.38-1.62-1.33-1.62-.69,0-1.16.35-1.83,1V17.8h-1Z"/><path d="M81.61,15.53V12.77H80V12L81.64,12l.13-1.87h.83V12h2.86v.8H82.6v2.77c0,1.05.35,1.59,1.48,1.59a3.74,3.74,0,0,0,1.39-.27l.21.74a5.09,5.09,0,0,1-1.82.34C82.16,17.94,81.61,17,81.61,15.53Z"/><path d="M87.15,14.87a2.93,2.93,0,0,1,3-3,2.51,2.51,0,0,1,2.66,2.73,4.66,4.66,0,0,1-.05.6H87.81v-.77h4.34l-.25.28c0-1.38-.68-2.06-1.75-2.06a2.05,2.05,0,0,0-2,2.26,2.12,2.12,0,0,0,2.28,2.28,3.15,3.15,0,0,0,1.78-.55l.36.65a4,4,0,0,1-2.26.69A3,3,0,0,1,87.15,14.87Z"/><path d="M95.28,12h.82l.1,1.38h0a3.07,3.07,0,0,1,2.61-1.52,2.45,2.45,0,0,1,1.15.24l-.23.85a3,3,0,0,0-1.08-.19,2.73,2.73,0,0,0-2.4,1.66V17.8h-1Z"/><path d="M101.85,12h.82l.08,1h0A3,3,0,0,1,105,11.83c1.38,0,2,.81,2,2.35V17.8h-1V14.31c0-1.1-.38-1.62-1.33-1.62-.69,0-1.16.35-1.83,1V17.8h-1Z"/><path d="M108.75,14.87a2.93,2.93,0,0,1,3-3,2.51,2.51,0,0,1,2.66,2.73,4.66,4.66,0,0,1,0,.6h-4.93v-.77h4.34l-.25.28c0-1.38-.68-2.06-1.75-2.06a2.05,2.05,0,0,0-2,2.26A2.12,2.12,0,0,0,112,17.15a3.15,3.15,0,0,0,1.78-.55l.36.65a4,4,0,0,1-2.26.69A3,3,0,0,1,108.75,14.87Z"/><path d="M117.61,15.53V12.77H116V12l1.69-.06.13-1.87h.83V12h2.86v.8H118.6v2.77c0,1.05.35,1.59,1.48,1.59a3.74,3.74,0,0,0,1.39-.27l.21.74a5.09,5.09,0,0,1-1.82.34C118.16,17.94,117.61,17,117.61,15.53Z"/><path d="M130.76,9.93h2.37c1.74,0,2.92.59,2.92,2.32s-1.19,2.43-2.92,2.43h-1.36V17.8h-1ZM133,13.87c1.37,0,2-.51,2-1.62s-.67-1.5-2-1.5h-1.24v3.12Z"/><path d="M138.47,12h.83l.1,1.38h0a3.06,3.06,0,0,1,2.6-1.52,2.46,2.46,0,0,1,1.16.24l-.23.85a3,3,0,0,0-1.08-.19,2.73,2.73,0,0,0-2.4,1.66V17.8h-1Z"/><path d="M147.71,12.77H145V12h3.7V17.8h-1ZM147.32,10a.79.79,0,1,1,.79.77A.75.75,0,0,1,147.32,10Z"/><path d="M151.73,12h1l1.35,3.3c.23.59.44,1.16.64,1.73h0c.21-.57.4-1.14.64-1.73l1.34-3.3h1l-2.42,5.83h-1.12Z"/><path d="M159.29,16.29c0-1.31,1.23-1.94,4.24-2.18A1.39,1.39,0,0,0,162,12.64a4,4,0,0,0-2,.7l-.39-.67a5,5,0,0,1,2.6-.84,2.16,2.16,0,0,1,2.37,2.4V17.8h-.82l-.09-.79h0a4,4,0,0,1-2.29.93C160.19,17.94,159.29,17.33,159.29,16.29Zm4.24,0V14.77c-2.5.19-3.25.68-3.25,1.45s.6.92,1.27.92A3.18,3.18,0,0,0,163.53,16.28Z"/><path d="M166.49,14.9a3,3,0,0,1,3.25-3.07,3,3,0,0,1,2.13.85l-.49.63a2.46,2.46,0,0,0-1.6-.66,2.15,2.15,0,0,0-2.27,2.25,2.12,2.12,0,0,0,2.25,2.22,2.77,2.77,0,0,0,1.8-.74L172,17a3.45,3.45,0,0,1-2.32.91A2.94,2.94,0,0,1,166.49,14.9Z"/><path d="M173.54,20.19l.2-.8a1.84,1.84,0,0,0,.53.09,1.7,1.7,0,0,0,1.6-1.24l.16-.43L173.32,12h1l1.42,3.22c.22.51.48,1.12.71,1.69h0c.21-.56.43-1.17.63-1.69L178.4,12h1l-2.58,6.31a2.62,2.62,0,0,1-2.47,2A2.49,2.49,0,0,1,173.54,20.19Z"/></g></g></svg>