<svg xmlns="http://www.w3.org/2000/svg" viewBox="0 0 825.5 579.5"><g id="Layer_2" data-name="Layer 2"><g id="Layer_2-2" data-name="Layer 2"><rect x="1" y="1" width="823.5" height="577.5" rx="7.09" fill="#fff" stroke="#999" stroke-miterlimit="10" stroke-width="2"/><path d="M150.29,47.9a13.88,13.88,0,1,1,0-27.75H697a13.88,13.88,0,1,1,0,27.75Z" fill="#fff"/><path d="M697,20.28a13.75,13.75,0,0,1,0,27.5H150.29a13.75,13.75,0,0,1,0-27.5H697m0-.25H150.29a14,14,0,0,0,0,28H697a14,14,0,0,0,0-28Z" fill="#999"/><path d="M154.21,38.19A6.58,6.58,0,1,1,161,31.61,6.69,6.69,0,0,1,154.21,38.19Z" fill="#fff"/><path d="M154.21,26a5.58,5.58,0,1,1-5.79,5.58A5.69,5.69,0,0,1,154.21,26m0-2A7.58,7.58,0,1,0,162,31.61,7.68,7.68,0,0,0,154.21,24Z"/><line x1="158.57" y1="36.73" x2="165.32" y2="43.61" fill="none" stroke="#000" stroke-miterlimit="10" stroke-width="2"/><path d="M160.21,91.19A6.58,6.58,0,1,1,167,84.61,6.69,6.69,0,0,1,160.21,91.19Z" fill="#fff"/><path d="M160.21,79a5.58,5.58,0,1,1-5.79,5.58A5.69,5.69,0,0,1,160.21,79m0-2A7.58,7.58,0,1,0,168,84.61,7.68,7.68,0,0,0,160.21,77Z"/><line x1="164.57" y1="89.73" x2="171.32" y2="96.61" fill="none" stroke="#000" stroke-miterlimit="10" stroke-width="2"/><path d="M250.5,86.64a3,3,0,1,1,3-3A3,3,0,0,1,250.5,86.64Zm0-4a1,1,0,1,0,1,1A1,1,0,0,0,250.5,82.64Zm0,14a1,1,0,0,1-.89-.55l-3.51-7a7,7,0,1,1,8.8,0l-3.5,7A1,1,0,0,1,250.5,96.64Zm0-18a5,5,0,0,0-3,9,1,1,0,0,1,.29.35l2.71,5.42L253.22,88a1,1,0,0,1,.29-.35,5,5,0,0,0-3-9Z"/><path d="M344.5,77h-10a4.51,4.51,0,0,0-4.5,4.5v10a4.51,4.51,0,0,0,4.5,4.5h10a4.5,4.5,0,0,0,4.5-4.5v-10A4.49,4.49,0,0,0,344.5,77Zm-10,1h10a3.5,3.5,0,0,1,3.5,3.5v8a3.86,3.86,0,0,1-2.07-1.06,3.28,3.28,0,0,0-2.18-1,4.67,4.67,0,0,0-2,.61,4.86,4.86,0,0,1-2.26.66c-.44,0-.58-.33-.8-1.41s-.56-2.8-2.65-2.46A9.85,9.85,0,0,0,331,87.91V81.53A3.5,3.5,0,0,1,334.5,78Zm10,17h-10a3.5,3.5,0,0,1-3.5-3.5V89.44c.47-.6,2.65-3.18,5.21-3.6,1-.17,1.24.32,1.51,1.67.19.93.46,2.21,1.78,2.21a5.84,5.84,0,0,0,2.7-.76,3.69,3.69,0,0,1,1.55-.51,2.42,2.42,0,0,1,1.54.8A4.82,4.82,0,0,0,348,90.57v1A3.5,3.5,0,0,1,344.5,95Zm-1.85-9.12a2.26,2.26,0,1,0-2.26-2.26A2.26,2.26,0,0,0,342.65,85.91Zm0-3.52a1.26,1.26,0,1,1-1.26,1.26A1.26,1.26,0,0,1,342.65,82.39Z"/><path d="M445.49,74.64H427.42a.53.53,0,0,0-.52.51V94.52a.53.53,0,0,0,.52.51h18.07a.53.53,0,0,0,.51-.51V75.15A.53.53,0,0,0,445.49,74.64Zm-15.44,4a.53.53,0,0,1,.52-.51H436a.53.53,0,0,1,.52.51v4.11a.53.53,0,0,1-.52.51h-5.47a.53.53,0,0,1-.52-.51Zm12.29,12.88H430.57a.51.51,0,1,1,0-1h11.77a.53.53,0,0,1,.52.51A.51.51,0,0,1,442.34,91.53Zm0-4.39H430.57a.51.51,0,1,1,0-1h11.77a.53.53,0,0,1,.52.51A.5.5,0,0,1,442.34,87.14Zm0-3.87h-2.77a.51.51,0,1,1,0-1h2.77a.53.53,0,0,1,.52.51A.51.51,0,0,1,442.34,83.27Zm0-4.11h-2.77a.51.51,0,1,1,0-1h2.77a.53.53,0,0,1,.52.51A.51.51,0,0,1,442.34,79.16Z" fill="#fff" stroke="#000" stroke-miterlimit="10"/><path d="M522.94,77.74h0s-.78,0-2.51.18a4.85,4.85,0,0,0-3.18,1.56l-7,7a1.54,1.54,0,0,0,0,2.16l5.63,5.62a1.52,1.52,0,0,0,2.16,0l7-7a4.85,4.85,0,0,0,1.56-3.2c.1-1.78.17-2.62.17-2.62v0a3.53,3.53,0,0,0-1-2.68A3.49,3.49,0,0,0,522.94,77.74Zm.07,1h0a2.5,2.5,0,0,1,2.74,2.63s-.08.86-.18,2.64a3.54,3.54,0,0,1-1.27,2.55l-7,7a.53.53,0,0,1-.75,0L510.92,88a.53.53,0,0,1,0-.75l7-7a3.6,3.6,0,0,1,2.56-1.27C522.25,78.77,523,78.74,523,78.74Zm.26,1a1.5,1.5,0,0,0-1.06.43,1.5,1.5,0,1,0,2.12,0A1.48,1.48,0,0,0,523.27,79.74Zm0,1a.51.51,0,0,1,.36.15.5.5,0,1,1-.71,0A.5.5,0,0,1,523.27,80.73Z"/><path d="M601.91,75.83a2.23,2.23,0,1,0,0,3A1.84,1.84,0,0,0,601.91,75.83Z" fill="#fff" stroke="#000" stroke-miterlimit="10"/><path d="M601.91,84.36c-1.29-1.26-3.88-.26-3.88,1.5a2.38,2.38,0,0,0,3.88,1.75A2.08,2.08,0,0,0,601.91,84.36Z" fill="#fff" stroke="#000" stroke-miterlimit="10"/><path d="M601.91,92.38a2.23,2.23,0,1,0,0,3A1.83,1.83,0,0,0,601.91,92.38Z" fill="#fff" stroke="#000" stroke-miterlimit="10"/><line x1="2" y1="109.03" x2="825" y2="110.03" fill="none" stroke="#999" stroke-miterlimit="10" stroke-width="0.5"/></g></g></svg>