<svg xmlns="http://www.w3.org/2000/svg" xmlns:xlink="http://www.w3.org/1999/xlink" viewBox="0 0 561 338.28"><defs><mask id="mask" x="17.58" y="11" width="22.42" height="31" maskUnits="userSpaceOnUse"><g id="mask-2"><path id="path-1" d="M31.59,11H19.68a2.11,2.11,0,0,0-2.1,2.11V39.89A2.11,2.11,0,0,0,19.68,42H37.9A2.11,2.11,0,0,0,40,39.89V19.45Z" fill="#fff" fill-rule="evenodd"/></g></mask><linearGradient id="linear-gradient" x1="-2495.18" y1="695.81" x2="-2495.18" y2="695.37" gradientTransform="matrix(16.45, 0, 0, -16.45, 41086.93, 11464.35)" gradientUnits="userSpaceOnUse"><stop offset="0" stop-color="#bf360c" stop-opacity="0.2"/><stop offset="1" stop-color="#bf360c" stop-opacity="0.02"/></linearGradient><radialGradient id="radial-gradient" cx="-2600.44" cy="710.78" r="1.61" gradientTransform="matrix(22.42, 0, 0, -22.55, 58322.29, 16036.78)" gradientUnits="userSpaceOnUse"><stop offset="0" stop-color="#fff" stop-opacity="0.1"/><stop offset="1" stop-color="#fff" stop-opacity="0"/></radialGradient></defs><g id="Layer_2" data-name="Layer 2"><g id="Layer_5" data-name="Layer 5"><rect x="1" y="1" width="559" height="336.28" rx="7.09" fill="#fff" stroke="#999" stroke-miterlimit="10" stroke-width="2"/><rect x="1.03" y="66.43" width="558.97" height="270.54" rx="7.09" fill="#ebf2ed"/><rect x="49.79" y="85.48" width="473.93" height="233.38" rx="7.09" fill="#fff" stroke="#999" stroke-miterlimit="10" stroke-width="2"/><rect x="1.3" y="56.95" width="22.13" height="280.01" rx="7.09" fill="#fff" stroke="#999" stroke-miterlimit="10" stroke-width="2"/><rect x="271.01" y="-214.06" width="18.99" height="559" rx="7.09" transform="translate(345.94 -215.06) rotate(90)" fill="#fff" stroke="#999" stroke-miterlimit="10" stroke-width="2"/><g id="Page-1"><g id="Consumer-Apps-Slides-Large-VD-R8"><g id="Hero"><g id="Personal"><g id="Slides-icon"><g id="Group"><g id="Clipped"><g mask="url(#mask)"><path id="Path" d="M31.59,11H19.68a2.11,2.11,0,0,0-2.1,2.11V39.89A2.11,2.11,0,0,0,19.68,42H37.9A2.11,2.11,0,0,0,40,39.89V19.45l-4.9-3.52Z" fill="#f4b400"/></g></g><g id="Clipped-2" data-name="Clipped"><g mask="url(#mask)"><path id="Shape" d="M33.34,25.09h-9.1a1.07,1.07,0,0,0-1.06,1.06v9.16a1.06,1.06,0,0,0,1.06,1h9.1a1,1,0,0,0,1-1V26.15A1.06,1.06,0,0,0,33.34,25.09ZM33,33.19h-8.4V28.26H33Z" fill="#f1f1f1"/></g></g><g id="Clipped-3" data-name="Clipped"><g mask="url(#mask)"><polygon id="Path-2" data-name="Path" points="32.21 18.84 40 26.67 40 19.45 32.21 18.84" fill="url(#linear-gradient)"/></g></g><g id="Clipped-4" data-name="Clipped"><g mask="url(#mask)"><g id="Group-2" data-name="Group"><path id="Path-3-2" data-name="Path" d="M31.59,11v6.34a2.1,2.1,0,0,0,2.1,2.11H40Z" fill="#fada80"/></g></g></g><g id="Clipped-5" data-name="Clipped"><g mask="url(#mask)"><polygon id="Path-4" data-name="Path" points="31.59 11 31.59 11.18 39.83 19.45 40 19.45 31.59 11" fill="#fff" fill-opacity="0.1"/></g></g><g id="Clipped-6" data-name="Clipped"><g mask="url(#mask)"><path id="Path-5-2" data-name="Path" d="M19.68,11a2.11,2.11,0,0,0-2.1,2.11v.18a2.11,2.11,0,0,1,2.1-2.11H31.59V11Z" fill="#fff" fill-opacity="0.2"/></g></g><g id="Clipped-7" data-name="Clipped"><g mask="url(#mask)"><path id="Path-6" data-name="Path" d="M37.9,41.82H19.68a2.11,2.11,0,0,1-2.1-2.11v.18A2.11,2.11,0,0,0,19.68,42H37.9A2.11,2.11,0,0,0,40,39.89v-.18A2.11,2.11,0,0,1,37.9,41.82Z" fill="#bf360c" fill-opacity="0.2"/></g></g><g id="Clipped-8" data-name="Clipped"><g mask="url(#mask)"><path id="Path-7" data-name="Path" d="M33.69,19.45a2.1,2.1,0,0,1-2.1-2.11v.18a2.11,2.11,0,0,0,2.1,2.11H40v-.18Z" fill="#bf360c" fill-opacity="0.1"/></g></g></g><path id="Path-8-2" data-name="Path" d="M31.59,11H19.68a2.11,2.11,0,0,0-2.1,2.11V39.89A2.11,2.11,0,0,0,19.68,42H37.9A2.11,2.11,0,0,0,40,39.89V19.45Z" fill="url(#radial-gradient)"/></g></g></g></g></g><line x1="21.19" y1="62" x2="21.19" y2="68" fill="none" stroke="#999" stroke-miterlimit="10" stroke-width="2"/><line x1="32.55" y1="62" x2="32.55" y2="68" fill="none" stroke="#999" stroke-miterlimit="10" stroke-width="2"/><line x1="43.9" y1="62" x2="43.9" y2="68" fill="none" stroke="#999" stroke-miterlimit="10" stroke-width="2"/><line x1="54" y1="60" x2="54" y2="70" fill="none" stroke="#999" stroke-miterlimit="10" stroke-width="2"/><line x1="64.09" y1="62" x2="64.09" y2="68" fill="none" stroke="#999" stroke-miterlimit="10" stroke-width="2"/><line x1="75.45" y1="62" x2="75.45" y2="68" fill="none" stroke="#999" stroke-miterlimit="10" stroke-width="2"/><line x1="86.81" y1="62" x2="86.81" y2="68" fill="none" stroke="#999" stroke-miterlimit="10" stroke-width="2"/><line x1="96.9" y1="60" x2="96.9" y2="70" fill="none" stroke="#999" stroke-miterlimit="10" stroke-width="2"/><line x1="107" y1="62" x2="107" y2="68" fill="none" stroke="#999" stroke-miterlimit="10" stroke-width="2"/><line x1="118.35" y1="62" x2="118.35" y2="68" fill="none" stroke="#999" stroke-miterlimit="10" stroke-width="2"/><line x1="129.71" y1="62" x2="129.71" y2="68" fill="none" stroke="#999" stroke-miterlimit="10" stroke-width="2"/><line x1="139.8" y1="60" x2="139.8" y2="70" fill="none" stroke="#999" stroke-miterlimit="10" stroke-width="2"/><line x1="148.64" y1="62" x2="148.64" y2="68" fill="none" stroke="#999" stroke-miterlimit="10" stroke-width="2"/><line x1="159.99" y1="62" x2="159.99" y2="68" fill="none" stroke="#999" stroke-miterlimit="10" stroke-width="2"/><line x1="171.35" y1="62" x2="171.35" y2="68" fill="none" stroke="#999" stroke-miterlimit="10" stroke-width="2"/><line x1="181.44" y1="60" x2="181.44" y2="70" fill="none" stroke="#999" stroke-miterlimit="10" stroke-width="2"/><line x1="191.54" y1="62" x2="191.54" y2="68" fill="none" stroke="#999" stroke-miterlimit="10" stroke-width="2"/><line x1="202.9" y1="62" x2="202.9" y2="68" fill="none" stroke="#999" stroke-miterlimit="10" stroke-width="2"/><line x1="214.25" y1="62" x2="214.25" y2="68" fill="none" stroke="#999" stroke-miterlimit="10" stroke-width="2"/><line x1="224.35" y1="60" x2="224.35" y2="70" fill="none" stroke="#999" stroke-miterlimit="10" stroke-width="2"/><line x1="234.44" y1="62" x2="234.44" y2="68" fill="none" stroke="#999" stroke-miterlimit="10" stroke-width="2"/><line x1="245.8" y1="62" x2="245.8" y2="68" fill="none" stroke="#999" stroke-miterlimit="10" stroke-width="2"/><line x1="257.16" y1="62" x2="257.16" y2="68" fill="none" stroke="#999" stroke-miterlimit="10" stroke-width="2"/><line x1="267.25" y1="60" x2="267.25" y2="70" fill="none" stroke="#999" stroke-miterlimit="10" stroke-width="2"/><line x1="276.08" y1="62" x2="276.08" y2="68" fill="none" stroke="#999" stroke-miterlimit="10" stroke-width="2"/><line x1="287.44" y1="62" x2="287.44" y2="68" fill="none" stroke="#999" stroke-miterlimit="10" stroke-width="2"/><line x1="298.8" y1="62" x2="298.8" y2="68" fill="none" stroke="#999" stroke-miterlimit="10" stroke-width="2"/><line x1="308.89" y1="60" x2="308.89" y2="70" fill="none" stroke="#999" stroke-miterlimit="10" stroke-width="2"/><line x1="316.46" y1="62" x2="316.46" y2="68" fill="none" stroke="#999" stroke-miterlimit="10" stroke-width="2"/><line x1="327.82" y1="62" x2="327.82" y2="68" fill="none" stroke="#999" stroke-miterlimit="10" stroke-width="2"/><line x1="339.18" y1="62" x2="339.18" y2="68" fill="none" stroke="#999" stroke-miterlimit="10" stroke-width="2"/><line x1="349.27" y1="60" x2="349.27" y2="70" fill="none" stroke="#999" stroke-miterlimit="10" stroke-width="2"/><line x1="356.84" y1="62" x2="356.84" y2="68" fill="none" stroke="#999" stroke-miterlimit="10" stroke-width="2"/><line x1="368.2" y1="62" x2="368.2" y2="68" fill="none" stroke="#999" stroke-miterlimit="10" stroke-width="2"/><line x1="379.56" y1="62" x2="379.56" y2="68" fill="none" stroke="#999" stroke-miterlimit="10" stroke-width="2"/><line x1="389.65" y1="60" x2="389.65" y2="70" fill="none" stroke="#999" stroke-miterlimit="10" stroke-width="2"/><line x1="398.48" y1="62" x2="398.48" y2="68" fill="none" stroke="#999" stroke-miterlimit="10" stroke-width="2"/><line x1="409.84" y1="62" x2="409.84" y2="68" fill="none" stroke="#999" stroke-miterlimit="10" stroke-width="2"/><line x1="421.2" y1="62" x2="421.2" y2="68" fill="none" stroke="#999" stroke-miterlimit="10" stroke-width="2"/><line x1="431.29" y1="60" x2="431.29" y2="70" fill="none" stroke="#999" stroke-miterlimit="10" stroke-width="2"/><line x1="438.86" y1="62" x2="438.86" y2="68" fill="none" stroke="#999" stroke-miterlimit="10" stroke-width="2"/><line x1="450.22" y1="62" x2="450.22" y2="68" fill="none" stroke="#999" stroke-miterlimit="10" stroke-width="2"/><line x1="461.58" y1="62" x2="461.58" y2="68" fill="none" stroke="#999" stroke-miterlimit="10" stroke-width="2"/><line x1="471.67" y1="60" x2="471.67" y2="70" fill="none" stroke="#999" stroke-miterlimit="10" stroke-width="2"/><line x1="480.5" y1="62" x2="480.5" y2="68" fill="none" stroke="#999" stroke-miterlimit="10" stroke-width="2"/><line x1="491.86" y1="62" x2="491.86" y2="68" fill="none" stroke="#999" stroke-miterlimit="10" stroke-width="2"/><line x1="503.22" y1="62" x2="503.22" y2="68" fill="none" stroke="#999" stroke-miterlimit="10" stroke-width="2"/><line x1="513.31" y1="60" x2="513.31" y2="70" fill="none" stroke="#999" stroke-miterlimit="10" stroke-width="2"/><line x1="520.88" y1="62" x2="520.88" y2="68" fill="none" stroke="#999" stroke-miterlimit="10" stroke-width="2"/><line x1="532.24" y1="62" x2="532.24" y2="68" fill="none" stroke="#999" stroke-miterlimit="10" stroke-width="2"/><line x1="543.6" y1="62" x2="543.6" y2="68" fill="none" stroke="#999" stroke-miterlimit="10" stroke-width="2"/><line x1="560" y1="61" x2="560" y2="71" fill="none" stroke="#999" stroke-miterlimit="10" stroke-width="2"/><line x1="16.14" y1="82" x2="8.57" y2="82" fill="none" stroke="#999" stroke-miterlimit="10" stroke-width="2"/><line x1="16.14" y1="91" x2="8.57" y2="91" fill="none" stroke="#999" stroke-miterlimit="10" stroke-width="2"/><line x1="16.14" y1="100" x2="8.57" y2="100" fill="none" stroke="#999" stroke-miterlimit="10" stroke-width="2"/><line x1="18.67" y1="108" x2="6.05" y2="108" fill="none" stroke="#999" stroke-miterlimit="10" stroke-width="2"/><line x1="16.14" y1="116" x2="8.57" y2="116" fill="none" stroke="#999" stroke-miterlimit="10" stroke-width="2"/><line x1="16.14" y1="125" x2="8.57" y2="125" fill="none" stroke="#999" stroke-miterlimit="10" stroke-width="2"/><line x1="16.14" y1="134" x2="8.57" y2="134" fill="none" stroke="#999" stroke-miterlimit="10" stroke-width="2"/><line x1="18.67" y1="142" x2="6.05" y2="142" fill="none" stroke="#999" stroke-miterlimit="10" stroke-width="2"/><line x1="16.14" y1="150" x2="8.57" y2="150" fill="none" stroke="#999" stroke-miterlimit="10" stroke-width="2"/><line x1="16.14" y1="159" x2="8.57" y2="159" fill="none" stroke="#999" stroke-miterlimit="10" stroke-width="2"/><line x1="16.14" y1="168" x2="8.57" y2="168" fill="none" stroke="#999" stroke-miterlimit="10" stroke-width="2"/><line x1="18.67" y1="176" x2="6.05" y2="176" fill="none" stroke="#999" stroke-miterlimit="10" stroke-width="2"/><line x1="16.14" y1="183" x2="8.57" y2="183" fill="none" stroke="#999" stroke-miterlimit="10" stroke-width="2"/><line x1="16.14" y1="192" x2="8.57" y2="192" fill="none" stroke="#999" stroke-miterlimit="10" stroke-width="2"/><line x1="16.14" y1="201" x2="8.57" y2="201" fill="none" stroke="#999" stroke-miterlimit="10" stroke-width="2"/><line x1="18.67" y1="209" x2="6.05" y2="209" fill="none" stroke="#999" stroke-miterlimit="10" stroke-width="2"/><line x1="16.14" y1="217" x2="8.57" y2="217" fill="none" stroke="#999" stroke-miterlimit="10" stroke-width="2"/><line x1="16.14" y1="226" x2="8.57" y2="226" fill="none" stroke="#999" stroke-miterlimit="10" stroke-width="2"/><line x1="16.14" y1="235" x2="8.57" y2="235" fill="none" stroke="#999" stroke-miterlimit="10" stroke-width="2"/><line x1="18.67" y1="243" x2="6.05" y2="243" fill="none" stroke="#999" stroke-miterlimit="10" stroke-width="2"/><line x1="16.14" y1="251" x2="8.57" y2="251" fill="none" stroke="#999" stroke-miterlimit="10" stroke-width="2"/><line x1="16.14" y1="260" x2="8.57" y2="260" fill="none" stroke="#999" stroke-miterlimit="10" stroke-width="2"/><line x1="16.14" y1="269" x2="8.57" y2="269" fill="none" stroke="#999" stroke-miterlimit="10" stroke-width="2"/><line x1="18.67" y1="277" x2="6.05" y2="277" fill="none" stroke="#999" stroke-miterlimit="10" stroke-width="2"/><line x1="16.14" y1="284" x2="8.57" y2="284" fill="none" stroke="#999" stroke-miterlimit="10" stroke-width="2"/><line x1="16.14" y1="293" x2="8.57" y2="293" fill="none" stroke="#999" stroke-miterlimit="10" stroke-width="2"/><line x1="16.14" y1="302" x2="8.57" y2="302" fill="none" stroke="#999" stroke-miterlimit="10" stroke-width="2"/><line x1="18.67" y1="310" x2="6.05" y2="310" fill="none" stroke="#999" stroke-miterlimit="10" stroke-width="2"/><line x1="16.14" y1="316" x2="8.57" y2="316" fill="none" stroke="#999" stroke-miterlimit="10" stroke-width="2"/><line x1="16.14" y1="322" x2="8.57" y2="322" fill="none" stroke="#999" stroke-miterlimit="10" stroke-width="2"/><line x1="16.14" y1="328" x2="8.57" y2="328" fill="none" stroke="#999" stroke-miterlimit="10" stroke-width="2"/></g></g></svg>