<svg xmlns="http://www.w3.org/2000/svg" viewBox="0 0 493.09 472.64"><g id="Layer_2" data-name="Layer 2"><g id="Layer_23" data-name="Layer 23"><g id="Layer_24" data-name="Layer 24"><rect x="113.1" y="178.52" width="212" height="303" rx="41.2" transform="translate(455.06 11.83) rotate(70.14)" fill="#999" stroke="#000" stroke-miterlimit="10" stroke-width="6"/><rect x="306" y="200.94" width="212" height="114" rx="41.2" transform="translate(514.64 -217.18) rotate(70.14)" fill="#999" stroke="#000" stroke-miterlimit="10" stroke-width="6"/><rect x="45.24" y="229.09" width="300.22" height="75.44" rx="37.72" transform="translate(469.73 451.4) rotate(160.14)" fill="#1fb6ff" stroke="#000" stroke-miterlimit="10" stroke-width="6"/><rect x="332.75" y="158.54" width="115.11" height="75.44" rx="37.72" transform="translate(824.07 248.25) rotate(160.14)" fill="#1fb6ff" stroke="#000" stroke-miterlimit="10" stroke-width="6"/><line x1="246.46" y1="311.6" x2="131.99" y2="350.62" fill="none" stroke="#000" stroke-miterlimit="10" stroke-width="6"/><line x1="270.45" y1="322.76" x2="155.48" y2="362.17" fill="none" stroke="#000" stroke-miterlimit="10" stroke-width="6"/><line x1="227.44" y1="364.88" x2="145.63" y2="393.17" fill="none" stroke="#000" stroke-miterlimit="10" stroke-width="6"/><line x1="293.4" y1="366.97" x2="179.41" y2="406.28" fill="none" stroke="#000" stroke-miterlimit="10" stroke-width="6"/><line x1="448.89" y1="242.97" x2="384.71" y2="265.08" fill="none" stroke="#000" stroke-miterlimit="10" stroke-width="6"/><line x1="428.57" y1="277.37" x2="382.93" y2="293.32" fill="none" stroke="#000" stroke-miterlimit="10" stroke-width="6"/><rect x="64.98" y="85.96" width="212" height="303" rx="41.2" transform="translate(244.37 -45.8) rotate(50.28)" fill="#999" stroke="#000" stroke-miterlimit="10" stroke-width="6"/><rect x="221.92" y="47.14" width="212" height="114" rx="41.2" transform="translate(198.48 -214.64) rotate(50.28)" fill="#999" stroke="#000" stroke-miterlimit="10" stroke-width="6"/><rect x="-22.94" y="148.36" width="300.22" height="75.44" rx="37.72" transform="translate(343.9 247.95) rotate(140.28)" fill="#1fb6ff" stroke="#000" stroke-miterlimit="10" stroke-width="6"/><rect x="229" y="15.77" width="115.11" height="75.44" rx="37.72" transform="matrix(-0.77, 0.64, -0.64, -0.77, 541.16, -88.47)" fill="#1fb6ff" stroke="#000" stroke-miterlimit="10" stroke-width="6"/><line x1="190.45" y1="210.85" x2="96.05" y2="286.43" fill="none" stroke="#000" stroke-miterlimit="10" stroke-width="6"/><line x1="216.8" y1="213.19" x2="122.07" y2="289.31" fill="none" stroke="#000" stroke-miterlimit="10" stroke-width="6"/><line x1="190.67" y1="267.42" x2="123.33" y2="321.81" fill="none" stroke="#000" stroke-miterlimit="10" stroke-width="6"/><line x1="253.41" y1="246.97" x2="159.56" y2="322.67" fill="none" stroke="#000" stroke-miterlimit="10" stroke-width="6"/><line x1="357.53" y1="77.53" x2="304.68" y2="120.12" fill="none" stroke="#000" stroke-miterlimit="10" stroke-width="6"/><line x1="350.1" y1="116.78" x2="312.6" y2="147.29" fill="none" stroke="#000" stroke-miterlimit="10" stroke-width="6"/></g></g></g></svg>