<svg xmlns="http://www.w3.org/2000/svg" viewBox="0 0 561 781.72"><g id="Layer_2" data-name="Layer 2"><g id="Layer_13" data-name="Layer 13"><rect x="1" y="1" width="559" height="408.72" rx="7.09" fill="#fff" stroke="#999" stroke-miterlimit="10" stroke-width="2"/><rect x="1" y="67.75" width="559" height="235.37" rx="7.09" stroke="#999" stroke-miterlimit="10" stroke-width="2"/><rect x="1" y="1.77" width="559" height="65.95" rx="7.09" fill="#fff" stroke="#999" stroke-miterlimit="10" stroke-width="2"/><rect x="1" y="328.07" width="559" height="452.65" rx="7.09" fill="#fff" stroke="#999" stroke-miterlimit="10" stroke-width="2"/><path d="M112.44,21.61A6.6,6.6,0,0,0,107.76,17C104.7,15.78,75,15.2,66.41,17a6.6,6.6,0,0,0-4.68,4.66c-1.39,6-1.49,19.11,0,25.29a6.6,6.6,0,0,0,4.68,4.66c6.07,1.39,34.92,1.59,41.36,0a6.6,6.6,0,0,0,4.68-4.66C114,40.36,114.06,28.1,112.44,21.61Z" fill="red"/><path d="M95.83,34.28,82,26.38v15.8Z" fill="#fff"/><path d="M188.2,19.82h196a9.88,9.88,0,0,1,9.88,9.88v5a9.87,9.87,0,0,1-9.87,9.87h-196a9.88,9.88,0,0,1-9.88-9.88v-5a9.88,9.88,0,0,1,9.88-9.87Z" fill="#fff"/><path d="M384.2,19.94A9.76,9.76,0,0,1,394,29.69v5a9.76,9.76,0,0,1-9.75,9.75h-196a9.76,9.76,0,0,1-9.75-9.75v-5a9.76,9.76,0,0,1,9.75-9.75h196m0-.25h-196a10,10,0,0,0-10,10v5a10,10,0,0,0,10,10h196a10,10,0,0,0,10-10v-5a10,10,0,0,0-10-10Z" fill="#999"/><path d="M375.24,35.35c-3.22,0-5.84-2.31-5.84-5.14s2.62-5.14,5.84-5.14,5.83,2.3,5.83,5.14S378.45,35.35,375.24,35.35Z" fill="#fff"/><path d="M375.24,26.07c2.66,0,4.83,1.86,4.83,4.14s-2.17,4.14-4.83,4.14-4.84-1.86-4.84-4.14,2.17-4.14,4.84-4.14m0-2c-3.78,0-6.84,2.75-6.84,6.14s3.06,6.14,6.84,6.14,6.83-2.75,6.83-6.14-3.06-6.14-6.83-6.14Z"/><line x1="378.24" y1="33.89" x2="383.71" y2="40.77" fill="none" stroke="#000" stroke-miterlimit="10" stroke-width="2"/><rect x="1" y="294.72" width="559" height="32.93" rx="7.09" stroke="#999" stroke-miterlimit="10" stroke-width="2"/><path d="M32.33,312.52,25.82,316l-6.55,3.53a1.69,1.69,0,0,1-2-.37,1,1,0,0,1-.24-.65h0v-14a1.34,1.34,0,0,1,1.45-1.19,1.67,1.67,0,0,1,.86.23L25.82,307l6.51,3.5a1.08,1.08,0,0,1,.45,1.64A1.41,1.41,0,0,1,32.33,312.52Z" fill="#ebf2ed" fill-rule="evenodd"/><path d="M76,304.47c0-1.2-1.43-2.18-3.19-2.18s-3.18,1-3.18,2.18v13.07c0,1.21,1.42,2.18,3.18,2.18s3.19-1,3.19-2.18Z" fill="#ebf2ed"/><path d="M50.51,317.54c0,1.21,1.43,2.18,3.19,2.18a4,4,0,0,0,2.25-.64h0l9.56-6.53a1.93,1.93,0,0,0,.93-1.54,1.9,1.9,0,0,0-.93-1.54h0L56,302.93h0a4.06,4.06,0,0,0-2.25-.64c-1.76,0-3.19,1-3.19,2.18Z" fill="#ebf2ed"/><path d="M106.5,303.27v16a1.51,1.51,0,0,1-1.5,1.46,1.53,1.53,0,0,1-.94-.32L98,315.65H93.75a.74.74,0,0,1-.75-.73V307.6a.74.74,0,0,1,.75-.73H98l6.07-4.75h0a1.53,1.53,0,0,1,2.11.23A1.46,1.46,0,0,1,106.5,303.27Zm4.2,1.55a.77.77,0,0,0-1,.14.73.73,0,0,0,.15,1,6.52,6.52,0,0,1,0,10.54.73.73,0,0,0-.15,1,.76.76,0,0,0,.6.29.74.74,0,0,0,.45-.15,7.93,7.93,0,0,0,1.65-11.27A8.39,8.39,0,0,0,110.7,304.82Zm.3,6.44a5,5,0,0,0-2.52-4.39.77.77,0,0,0-1.06.09.73.73,0,0,0,.31,1.15,3.61,3.61,0,0,1,1.25,5,3.77,3.77,0,0,1-1.25,1.23.72.72,0,0,0-.25,1,.77.77,0,0,0,1,.24A5,5,0,0,0,111,311.26Z" fill="#ebf2ed"/><polygon points="531.06 303.5 536.25 303.5 536.25 300.72 528 300.72 528 307.94 531.06 307.94 531.06 303.5" fill="#ebf2ed"/><polygon points="536.25 317.94 531.06 317.94 531.06 313.5 528 313.5 528 320.72 536.25 320.72 536.25 317.94" fill="#ebf2ed"/><polygon points="546.94 317.94 541.75 317.94 541.75 320.72 550 320.72 550 313.5 546.94 313.5 546.94 317.94" fill="#ebf2ed"/><polygon points="541.75 303.5 546.94 303.5 546.94 307.94 550 307.94 550 300.72 541.75 300.72 541.75 303.5" fill="#ebf2ed"/><path d="M512.52,308.9l-2.28-.5a10.06,10.06,0,0,0-.65-1.79l1.31-2.2a.74.74,0,0,0-.07-.85l-2.06-2.36a.53.53,0,0,0-.74-.08l-1.92,1.5a7.48,7.48,0,0,0-1.57-.74l-.43-2.61a.62.62,0,0,0-.58-.55h-2.91a.63.63,0,0,0-.58.55l-.43,2.61a7.18,7.18,0,0,0-1.56.74l-1.93-1.5a.53.53,0,0,0-.74.08l-2.06,2.36a.74.74,0,0,0-.07.85l1.31,2.2a10.06,10.06,0,0,0-.65,1.79l-2.28.5a.64.64,0,0,0-.48.65v3.34a.66.66,0,0,0,.48.66l2.28.5a10,10,0,0,0,.65,1.78l-1.31,2.2a.74.74,0,0,0,.07.85l2.06,2.36a.53.53,0,0,0,.74.08l1.93-1.5a7.18,7.18,0,0,0,1.56.74l.43,2.62a.63.63,0,0,0,.58.54h2.91a.62.62,0,0,0,.58-.54l.43-2.62a7.48,7.48,0,0,0,1.57-.74l1.92,1.5a.53.53,0,0,0,.74-.08l2.06-2.36a.74.74,0,0,0,.07-.85l-1.31-2.2a10,10,0,0,0,.65-1.78l2.28-.5a.66.66,0,0,0,.48-.66v-3.34A.64.64,0,0,0,512.52,308.9Zm-10.44,6.66a4.38,4.38,0,1,1,3.78-4.34A4.09,4.09,0,0,1,502.08,315.56Z" fill="#ebf2ed"/></g><g id="Layer_4" data-name="Layer 4"><g id="Layer_9" data-name="Layer 9"><path d="M131.52,77.72h295c21.27,0,38.52,17.47,38.52,39v133.1c0,21.55-17.25,39-38.52,39h-295c-21.27,0-38.52-17.47-38.52-39V116.75C93,95.19,110.25,77.72,131.52,77.72Z" fill="#a00" stroke="#000" stroke-miterlimit="10" stroke-width="9"/><path d="M279,110.24c-44.11,0-80,40.71-80,90.74s35.9,90.74,80,90.74S359,251,359,201,323.13,110.24,279,110.24Zm-2.67,86.67h-37a159.09,159.09,0,0,1,5.3-37.85h31.68Zm0,6.05v39.57h-32A161.45,161.45,0,0,1,239.32,203Zm5.34,0h37a162.42,162.42,0,0,1-5.05,39.57h-32Zm0-6.05V159.06h31.72a159.59,159.59,0,0,1,5.29,37.85Zm0-43.1V117.2c12.52,1.76,23.46,15.87,30.14,36.61Zm-5.34,0H246.2C252.88,133,263.81,119,276.33,117.2Zm-36.44,5.25a168.29,168.29,0,0,0-5,37.85H204.41a92.53,92.53,0,0,1,9.72-37.85Zm-5,43.9a169.1,169.1,0,0,0,4.94,39.57H214a92.94,92.94,0,0,1-9.6-39.57Zm41.45,44.84v37.63c-12.73-1.8-23.79-16.32-30.45-37.63Zm5.34,0h30.46c-6.64,21.32-17.73,35.87-30.46,37.63Zm36.52-5.25A169.1,169.1,0,0,0,323.13,203h30.52a93,93,0,0,1-9.6,39.57Zm4.91-45.62a167.88,167.88,0,0,0-5-37.86h25.74a92.45,92.45,0,0,1,9.75,37.86ZM341,153.82H316.66c-4.56-15.19-11.27-27.4-19.24-34.9,18,5.18,33.46,17.84,43.58,34.89ZM260.57,118.9c-8,7.5-14.69,19.71-19.24,34.91H217C227.12,136.77,242.58,124.1,260.57,118.9ZM216.8,247.8h24.45c4.57,15.4,11.34,27.75,19.42,35.28C242.47,277.86,226.9,265,216.8,247.8Zm80.54,35.28c8.07-7.55,14.85-19.91,19.42-35.28h24.45C331.08,265,315.53,277.86,297.34,283.08Z"/><ellipse cx="279" cy="224.49" rx="35.96" ry="49.88" fill="#fff"/><path d="M335.7,264.08c-8.92-9-26.75-9.82-26.75-9.82,5.73-7.9,19.73-6.22,17.84-43.89S279,162.91,279,162.91s-45.85,9.79-47.78,47.46,12.1,36,17.84,43.89c0,0-17.84.84-26.76,9.82S214,288.43,214,288.43H344S344.62,273.08,335.7,264.08ZM279,271.72c-22.29-14.84-31.75-47.45-33.08-65.23S279,187.17,279,187.17s34.46,1.54,33.09,19.32S301.3,256.9,279,271.74Z"/><path d="M301.94,233c-1.44,2.89-6.69,7.69-10.52,4.33S279,233,279,233s-8.6,1-12.42,4.33-9.08-1.44-10.52-4.33c0,0-1,12.46,11.47,12.52,6.2,0,7.65-5.29,11.47-6.26,3.81,1,5.26,6.28,11.46,6.26C302.94,245.48,301.94,233,301.94,233Z"/><path d="M279,253.32s-4.78,0-4.3,3.84,4.3,11.06,4.3,11.06,3.83-7.22,4.3-11.06S279,253.32,279,253.32Z"/><path d="M273.2,212s-3.34-6.47-8.6-4.92A86.36,86.36,0,0,0,252.66,212a105.34,105.34,0,0,0,12,1.77C271.67,214.37,273.2,212,273.2,212Z"/><path d="M284.81,212s3.34-6.47,8.6-4.92A86.36,86.36,0,0,1,305.35,212a106,106,0,0,1-12,1.77C286.33,214.37,284.81,212,284.81,212Z"/><path d="M272.18,204.17s-8.44-10.78-12.77-8.42-5.73,4.49-5.73,4.49S259.59,199.18,272.18,204.17Z"/><path d="M285.85,204.17s8.44-10.78,12.77-8.42,5.72,4.49,5.72,4.49S298.42,199.18,285.85,204.17Z"/><path d="M326.05,150.18c.43,7.42,9.76,20,9.76,20s-3.72,21.41-1.92,22.41c2.27,1.26,16.87-15.05,16.87-15.05s33.73,5.16,49.07-5.14c7.84-5.29,13-15.61,12.29-24.93-1.31-18.23-24.91-33-45-32.4C343.35,115.78,325,131.52,326.05,150.18Z" fill="#fff" stroke="#000" stroke-miterlimit="10" stroke-width="2"/><path d="M222,179.66c-.43,7.42-9.76,20-9.76,20S216,221,214.2,222c-2.26,1.26-16.86-15-16.86-15s-33.73,5.15-49.07-5.15c-7.84-5.27-13-15.61-12.3-24.92,1.32-18.23,24.92-33,45-32.41C204.74,145.27,223.13,161,222,179.66Z" fill="#fff" stroke="#000" stroke-miterlimit="10" stroke-width="2"/><path d="M357.22,153.85l.24,4.8a.58.58,0,0,0,.58.59h0a.59.59,0,0,0,.55-.59l-.24-4.8a.66.66,0,0,1,.39-.65l2.39-1.12a14.32,14.32,0,0,0,1.09,3.17l-1.86.81a1.61,1.61,0,0,0-.91,1.53l.19,3.82a.58.58,0,0,0,.58.56h0a.57.57,0,0,0,.55-.61h0l-.19-3.83a.43.43,0,0,1,.24-.4l1.88-.88a10,10,0,0,0,3.73,3.87l2-9a.58.58,0,0,1,.58-.46.59.59,0,0,1,.58.46l2,9a10,10,0,0,0,3.73-3.87l1.88.87a.46.46,0,0,1,.24.41l-.19,3.82a.58.58,0,0,0,.55.62h0a.59.59,0,0,0,.58-.56l.19-3.82a1.6,1.6,0,0,0-.91-1.53l-1.83-.85a14.32,14.32,0,0,0,1.09-3.17l2.4,1.12a.7.7,0,0,1,.39.65l-.29,4.8a.58.58,0,0,0,.58.59h0a.58.58,0,0,0,.58-.59l.23-4.8A1.86,1.86,0,0,0,379.9,152l-2.67-1.21v-.17l2.68-1.26a1.86,1.86,0,0,0,1.06-1.76l-.24-4.8a.6.6,0,0,0-.61-.56.59.59,0,0,0-.55.62l.24,4.8a.68.68,0,0,1-.39.65l-2.16,1a8.25,8.25,0,0,0-1.65-4.5h-13a8.17,8.17,0,0,0-1.65,4.5l-2.17-1a.68.68,0,0,1-.38-.65l.24-4.8a.58.58,0,1,0-1.16-.06l-.24,4.8a1.83,1.83,0,0,0,1.06,1.76l2.67,1.26v.17l-2.69,1.26A1.86,1.86,0,0,0,357.22,153.85Z"/><path d="M375.69,134.89a.59.59,0,0,0,0-1.17c-2.84.07-4.12,2.86-4.56,4.16a5.93,5.93,0,0,0-2-.35,6.12,6.12,0,0,0-2,.34c-.45-1.31-1.74-4.08-4.56-4.15h0a.59.59,0,0,0,0,1.17c2.17.06,3.19,2.47,3.52,3.47a6.19,6.19,0,0,0-3.06,5.29h12.23a6.2,6.2,0,0,0-3-5.26C372.5,137.39,373.51,135,375.69,134.89Z"/><path d="M369.11,153.89l-1.49,6.67a4.71,4.71,0,0,0,3,0Z"/><path d="M157.07,164.21h43.85a1.78,1.78,0,0,1,1.78,1.8v27.6a1.79,1.79,0,0,1-1.78,1.8H157.07a1.79,1.79,0,0,1-1.77-1.8V166A1.78,1.78,0,0,1,157.07,164.21Z" fill="#fff" stroke="#000" stroke-miterlimit="10" stroke-width="2"/><path d="M189.09,164.22H155.3v-6.88H177Z" fill="none" stroke="#000" stroke-miterlimit="10" stroke-width="2"/><path d="M174.57,177.8h8.85A3.19,3.19,0,0,1,186.6,181v7.78a3.2,3.2,0,0,1-3.18,3.22h-8.85a3.2,3.2,0,0,1-3.18-3.22V181A3.19,3.19,0,0,1,174.57,177.8Z" fill="gray" stroke="#000" stroke-miterlimit="10" stroke-width="2"/><ellipse cx="179" cy="184.02" rx="1.21" ry="1.23" stroke="#000" stroke-miterlimit="10" stroke-width="2"/><ellipse cx="179" cy="186.41" rx="0.55" ry="1.5" stroke="#000" stroke-miterlimit="10" stroke-width="2"/><path d="M173.53,178.23c-.87-4.46,1.66-8.11,5.08-8.11s5.43,3.68,5.43,5" fill="none" stroke="#000" stroke-miterlimit="10" stroke-width="4"/></g></g></g></svg>