<svg xmlns="http://www.w3.org/2000/svg" viewBox="0 0 561 439.72"><g id="Layer_2" data-name="Layer 2"><g id="Layer_13" data-name="Layer 13"><rect x="1" y="1" width="559" height="408.72" rx="7.09" fill="#fff" stroke="#999" stroke-miterlimit="10" stroke-width="2"/><rect x="1" y="67.75" width="559" height="235.37" rx="7.09" stroke="#999" stroke-miterlimit="10" stroke-width="2"/><rect x="1" y="1.77" width="559" height="65.95" rx="7.09" fill="#fff" stroke="#999" stroke-miterlimit="10" stroke-width="2"/><rect x="1" y="328.07" width="559" height="110.65" rx="7.09" fill="#fff" stroke="#999" stroke-miterlimit="10" stroke-width="2"/><path d="M112.44,21.61A6.6,6.6,0,0,0,107.76,17C104.7,15.78,75,15.2,66.41,17a6.6,6.6,0,0,0-4.68,4.66c-1.39,6-1.49,19.11,0,25.29a6.6,6.6,0,0,0,4.68,4.66c6.07,1.39,34.92,1.59,41.36,0a6.6,6.6,0,0,0,4.68-4.66C114,40.36,114.06,28.1,112.44,21.61Z" fill="red"/><path d="M95.83,34.28,82,26.38v15.8Z" fill="#fff"/><path d="M188.2,19.82h196a9.88,9.88,0,0,1,9.88,9.88v5a9.87,9.87,0,0,1-9.87,9.87h-196a9.88,9.88,0,0,1-9.88-9.88v-5a9.88,9.88,0,0,1,9.88-9.87Z" fill="#fff"/><path d="M384.2,19.94A9.76,9.76,0,0,1,394,29.69v5a9.76,9.76,0,0,1-9.75,9.75h-196a9.76,9.76,0,0,1-9.75-9.75v-5a9.76,9.76,0,0,1,9.75-9.75h196m0-.25h-196a10,10,0,0,0-10,10v5a10,10,0,0,0,10,10h196a10,10,0,0,0,10-10v-5a10,10,0,0,0-10-10Z" fill="#999"/><path d="M375.24,35.35c-3.22,0-5.84-2.31-5.84-5.14s2.62-5.14,5.84-5.14,5.83,2.3,5.83,5.14S378.45,35.35,375.24,35.35Z" fill="#fff"/><path d="M375.24,26.07c2.66,0,4.83,1.86,4.83,4.14s-2.17,4.14-4.83,4.14-4.84-1.86-4.84-4.14,2.17-4.14,4.84-4.14m0-2c-3.78,0-6.84,2.75-6.84,6.14s3.06,6.14,6.84,6.14,6.83-2.75,6.83-6.14-3.06-6.14-6.83-6.14Z"/><line x1="378.24" y1="33.89" x2="383.71" y2="40.77" fill="none" stroke="#000" stroke-miterlimit="10" stroke-width="2"/><rect x="1" y="294.72" width="559" height="32.93" rx="7.09" stroke="#999" stroke-miterlimit="10" stroke-width="2"/><path d="M32.33,312.52,25.82,316l-6.55,3.53a1.69,1.69,0,0,1-2-.37,1,1,0,0,1-.24-.65h0v-14a1.34,1.34,0,0,1,1.45-1.19,1.67,1.67,0,0,1,.86.23L25.82,307l6.51,3.5a1.08,1.08,0,0,1,.45,1.64A1.41,1.41,0,0,1,32.33,312.52Z" fill="#ebf2ed" fill-rule="evenodd"/><path d="M76,304.47c0-1.2-1.43-2.18-3.19-2.18s-3.18,1-3.18,2.18v13.07c0,1.21,1.42,2.18,3.18,2.18s3.19-1,3.19-2.18Z" fill="#ebf2ed"/><path d="M50.51,317.54c0,1.21,1.43,2.18,3.19,2.18a4,4,0,0,0,2.25-.64h0l9.56-6.53a1.93,1.93,0,0,0,.93-1.54,1.9,1.9,0,0,0-.93-1.54h0L56,302.93h0a4.06,4.06,0,0,0-2.25-.64c-1.76,0-3.19,1-3.19,2.18Z" fill="#ebf2ed"/><path d="M106.5,303.27v16a1.51,1.51,0,0,1-1.5,1.46,1.53,1.53,0,0,1-.94-.32L98,315.65H93.75a.74.74,0,0,1-.75-.73V307.6a.74.74,0,0,1,.75-.73H98l6.07-4.75h0a1.53,1.53,0,0,1,2.11.23A1.46,1.46,0,0,1,106.5,303.27Zm4.2,1.55a.77.77,0,0,0-1,.14.73.73,0,0,0,.15,1,6.52,6.52,0,0,1,0,10.54.73.73,0,0,0-.15,1,.76.76,0,0,0,.6.29.74.74,0,0,0,.45-.15,7.93,7.93,0,0,0,1.65-11.27A8.39,8.39,0,0,0,110.7,304.82Zm.3,6.44a5,5,0,0,0-2.52-4.39.77.77,0,0,0-1.06.09.73.73,0,0,0,.31,1.15,3.61,3.61,0,0,1,1.25,5,3.77,3.77,0,0,1-1.25,1.23.72.72,0,0,0-.25,1,.77.77,0,0,0,1,.24A5,5,0,0,0,111,311.26Z" fill="#ebf2ed"/><polygon points="531.06 303.5 536.25 303.5 536.25 300.72 528 300.72 528 307.94 531.06 307.94 531.06 303.5" fill="#ebf2ed"/><polygon points="536.25 317.94 531.06 317.94 531.06 313.5 528 313.5 528 320.72 536.25 320.72 536.25 317.94" fill="#ebf2ed"/><polygon points="546.94 317.94 541.75 317.94 541.75 320.72 550 320.72 550 313.5 546.94 313.5 546.94 317.94" fill="#ebf2ed"/><polygon points="541.75 303.5 546.94 303.5 546.94 307.94 550 307.94 550 300.72 541.75 300.72 541.75 303.5" fill="#ebf2ed"/><path d="M512.52,308.9l-2.28-.5a10.06,10.06,0,0,0-.65-1.79l1.31-2.2a.74.74,0,0,0-.07-.85l-2.06-2.36a.53.53,0,0,0-.74-.08l-1.92,1.5a7.48,7.48,0,0,0-1.57-.74l-.43-2.61a.62.62,0,0,0-.58-.55h-2.91a.63.63,0,0,0-.58.55l-.43,2.61a7.18,7.18,0,0,0-1.56.74l-1.93-1.5a.53.53,0,0,0-.74.08l-2.06,2.36a.74.74,0,0,0-.07.85l1.31,2.2a10.06,10.06,0,0,0-.65,1.79l-2.28.5a.64.64,0,0,0-.48.65v3.34a.66.66,0,0,0,.48.66l2.28.5a10,10,0,0,0,.65,1.78l-1.31,2.2a.74.74,0,0,0,.07.85l2.06,2.36a.53.53,0,0,0,.74.08l1.93-1.5a7.18,7.18,0,0,0,1.56.74l.43,2.62a.63.63,0,0,0,.58.54h2.91a.62.62,0,0,0,.58-.54l.43-2.62a7.48,7.48,0,0,0,1.57-.74l1.92,1.5a.53.53,0,0,0,.74-.08l2.06-2.36a.74.74,0,0,0,.07-.85l-1.31-2.2a10,10,0,0,0,.65-1.78l2.28-.5a.66.66,0,0,0,.48-.66v-3.34A.64.64,0,0,0,512.52,308.9Zm-10.44,6.66a4.38,4.38,0,1,1,3.78-4.34A4.09,4.09,0,0,1,502.08,315.56Z" fill="#ebf2ed"/></g></g></svg>