<svg id="Layer_4" data-name="Layer 4" xmlns="http://www.w3.org/2000/svg" viewBox="0 0 384.58 569.86"><g id="Layer_5" data-name="Layer 5"><rect x="7.5" y="7.5" width="369.58" height="554.86" rx="67.83" fill="#55afff" stroke="#000" stroke-miterlimit="10" stroke-width="15"/><rect x="16.39" y="128.99" width="352.76" height="433.37" rx="72.02" fill="#207f00" stroke="#000" stroke-miterlimit="10" stroke-width="4"/><path d="M765.42,686.31,540,685l56.22-429.11H709Q737.18,471.11,765.42,686.31Z" transform="translate(-464.64 -126.92)" fill="gray" stroke="#000" stroke-miterlimit="10" stroke-width="4"/><path d="M662.38,304.84,643,304.7q2.41-24.39,4.82-48.78h9.69Q659.95,280.39,662.38,304.84Z" transform="translate(-464.64 -126.92)" fill="#fff" stroke="#000" stroke-miterlimit="10" stroke-width="4"/><path d="M662.38,374.2,643,374.06q2.41-24.39,4.82-48.79h9.69Q659.95,349.74,662.38,374.2Z" transform="translate(-464.64 -126.92)" fill="#fff" stroke="#000" stroke-miterlimit="10" stroke-width="4"/><path d="M662.38,443.56,643,443.41q2.41-24.39,4.82-48.78h9.69Q659.95,419.1,662.38,443.56Z" transform="translate(-464.64 -126.92)" fill="#fff" stroke="#000" stroke-miterlimit="10" stroke-width="4"/><path d="M662.38,512,643,511.85q2.41-24.41,4.82-48.79h9.69Q659.95,487.53,662.38,512Z" transform="translate(-464.64 -126.92)" fill="#fff" stroke="#000" stroke-miterlimit="10" stroke-width="4"/><path d="M662.38,587.29,643,587.15q2.41-24.39,4.82-48.78h9.69Q659.95,562.82,662.38,587.29Z" transform="translate(-464.64 -126.92)" fill="#fff" stroke="#000" stroke-miterlimit="10" stroke-width="4"/><rect x="154.14" y="473.93" width="67.84" height="73.82" rx="33.92" fill="#5febff" stroke="#000" stroke-miterlimit="10" stroke-width="4"/></g></svg>