<svg xmlns="http://www.w3.org/2000/svg" viewBox="0 0 230 345"><g id="Layer_2" data-name="Layer 2"><g id="Layer_10" data-name="Layer 10"><rect width="230" height="345" rx="14.77" fill="#2e3192"/><path d="M194,345H27Q65.51,172.5,104,0h45Z" fill="gray"/><path d="M133,50H117l6-45h8Q132,27.5,133,50Z" fill="#e6e6e6"/><path d="M126,119H110l6-45h8Q125,96.5,126,119Z" fill="#e6e6e6"/><path d="M123,188H107l6-45h8Q122,165.5,123,188Z" fill="#e6e6e6"/><path d="M118,257H102l6-45h8Q117,234.5,118,257Z" fill="#e6e6e6"/><path d="M115,342H99l6-45h8Q114,319.5,115,342Z" fill="#e6e6e6"/><circle cx="115.5" cy="172.5" r="32.5" fill="#00a99d" opacity="0.59"/><path d="M91.48,175.78l21.84-20a3.09,3.09,0,0,1,4-.07l.08.07,21.83,20a2.29,2.29,0,0,1-.1,3.53,3,3,0,0,1-1.93.69H93.51a2.67,2.67,0,0,1-2.81-2.51A2.32,2.32,0,0,1,91.48,175.78Z" fill="#e6e6e6"/><rect x="8" y="9" width="218" height="52" rx="9.06" fill="#39b54a"/><rect y="282" width="230" height="63" rx="9.06" fill="#4d4d4d"/><rect x="88" y="293" width="45" height="7" rx="3.5" fill="#b3b3b3"/><path d="M31,34.3V20.65l-11.6,10.6-1.61-2.2L31.48,16.54a1.22,1.22,0,0,1,.8-.31,1.17,1.17,0,0,1,.79.31L46.75,29.05l-1.61,2.2L33.55,20.65V34.3Z" fill="#fff"/><path d="M32.28,16.35a1,1,0,0,1,.71.29L46.58,29.07l-1.46,2L33.84,20.75l-.42-.39V34.18H31.14V20.36l-.42.39L19.44,31.07l-1.47-2,13.6-12.43a1,1,0,0,1,.71-.29m0-.25a1.33,1.33,0,0,0-.88.35L17.64,29l1.76,2.41L30.89,20.93v13.5h2.78V20.93L45.16,31.44,46.92,29,33.16,16.45a1.31,1.31,0,0,0-.88-.35Z" fill="#999"/><rect x="31.02" y="48.53" width="2.53" height="5.34" fill="#fff"/><path d="M33.42,48.66v5.09H31.14V48.66h2.28m.25-.25H30.89V54h2.78V48.41Z" fill="#999"/><rect x="31.02" y="38.75" width="2.53" height="5.34" fill="#fff"/><path d="M33.42,38.87V44H31.14V38.87h2.28m.25-.25H30.89v5.59h2.78V38.62Z" fill="#999"/></g></g></svg>