<svg xmlns="http://www.w3.org/2000/svg" viewBox="0 0 230 345"><g id="Layer_2" data-name="Layer 2"><g id="Layer_10" data-name="Layer 10"><rect width="230" height="345" rx="14.77" fill="#2e3192"/><path d="M194,345H27Q65.51,172.5,104,0h45Z" fill="gray"/><path d="M133,50H117l6-45h8Q132,27.5,133,50Z" fill="#e6e6e6"/><path d="M126,119H110l6-45h8Q125,96.5,126,119Z" fill="#e6e6e6"/><path d="M123,188H107l6-45h8Q122,165.5,123,188Z" fill="#e6e6e6"/><path d="M118,257H102l6-45h8Q117,234.5,118,257Z" fill="#e6e6e6"/><path d="M115,342H99l6-45h8Q114,319.5,115,342Z" fill="#e6e6e6"/><circle cx="107.5" cy="260.5" r="32.5" fill="#00a99d" opacity="0.59"/><path d="M83.48,263.78l21.84-20a3.09,3.09,0,0,1,4-.07l.08.07,21.83,20a2.29,2.29,0,0,1-.1,3.53,3,3,0,0,1-1.93.69H85.51a2.67,2.67,0,0,1-2.81-2.51A2.32,2.32,0,0,1,83.48,263.78Z" fill="#e6e6e6"/><rect x="8" y="9" width="218" height="143" rx="9.06" fill="#39b54a"/><rect y="303" width="230" height="42" rx="9.06" fill="#4d4d4d"/><rect x="88" y="312" width="45" height="7" rx="3.5" fill="#b3b3b3"/></g></g></svg>